<?xml version="1.0" encoding="utf-8"?><!-- Uploaded to: SVG Repo, www.svgrepo.com, Generator: SVG Repo Mixer Tools -->
<svg fill="#000000" width="800px" height="800px" viewBox="0 0 24 24" id="gps-location" data-name="Flat Color" xmlns="http://www.w3.org/2000/svg" class="icon flat-color"><path id="secondary" d="M12,22a1,1,0,0,1-1-1V19a1,1,0,0,1,2,0v2A1,1,0,0,1,12,22Zm9-9H19a1,1,0,0,1,0-2h2a1,1,0,0,1,0,2ZM5,13H3a1,1,0,0,1,0-2H5a1,1,0,0,1,0,2Zm7-7a1,1,0,0,1-1-1V3a1,1,0,0,1,2,0V5A1,1,0,0,1,12,6Z" style="fill: rgb(44, 169, 188);"></path><circle id="primary" cx="12" cy="12" r="8" style="fill: rgb(0, 0, 0);"></circle><path id="secondary-2" data-name="secondary" d="M14,11a2,2,0,0,0-2.38-2A2.06,2.06,0,0,0,10,11.1,5.67,5.67,0,0,0,11.19,14a1,1,0,0,0,1.61,0A5.54,5.54,0,0,0,14,11Z" style="fill: rgb(44, 169, 188);"></path></svg>