<svg xmlns="http://www.w3.org/2000/svg" viewBox="0 0 48 48" fill="none" stroke="#00C8E0" stroke-width="1.5" stroke-linecap="round" stroke-linejoin="round"> <path d="M14 42V10a2 2 0 0 1 2-2h16a2 2 0 0 1 2 2v32"/> <path d="M20 42V34h8v8"/> <path d="M18 14h2"/> <path d="M24 14h2"/> <path d="M30 14h2"/> <path d="M18 20h2"/> <path d="M24 20h2"/> <path d="M30 20h2"/> <path d="M18 26h2"/> <path d="M24 26h2"/> <path d="M30 26h2"/> <path d="M8 18c2-2 5-2 7 0"/> <path d="M10 21c1-1 2-1 3 0"/> <circle cx="11.5" cy="23.5" r="0.5"/> <path d="M33 18c2-2 5-2 7 0"/> <path d="M35 21c1-1 2-1 3 0"/> <circle cx="36.5" cy="23.5" r="0.5"/> <path d="M8 42h32"/> </svg>