<svg xmlns="http://www.w3.org/2000/svg" viewBox="0 0 48 48" fill="none" stroke="#00C8E0" stroke-width="1.5" stroke-linecap="round" stroke-linejoin="round"> <path d="M13 12h22a3 3 0 0 1 3 3v18H10V15a3 3 0 0 1 3-3z"/> <path d="M10 24h28"/> <path d="M16 12v12"/> <path d="M24 12v12"/> <path d="M32 12v12"/> <path d="M14 33v3a2 2 0 0 0 2 2h1a2 2 0 0 0 2-2v-3"/> <path d="M29 33v3a2 2 0 0 0 2 2h1a2 2 0 0 0 2-2v-3"/> <circle cx="16" cy="29" r="2"/> <circle cx="32" cy="29" r="2"/> <path d="M8 42h8l5-5 6 3 5-6 8 2"/> <circle cx="8" cy="42" r="1"/> <circle cx="21" cy="37" r="1"/> <circle cx="27" cy="40" r="1"/> <circle cx="32" cy="34" r="1"/> <circle cx="40" cy="36" r="1"/> </svg>