 <svg xmlns="http://www.w3.org/2000/svg" viewBox="0 0 48 48" fill="none" stroke="#00C8E0" stroke-width="1.5" stroke-linecap="round" stroke-linejoin="round"> <path d="M13 14h22a3 3 0 0 1 3 3v18H10V17a3 3 0 0 1 3-3z"/> <path d="M10 24h28"/> <path d="M16 14v10"/> <path d="M24 14v10"/> <path d="M32 14v10"/> <path d="M14 35v3a2 2 0 0 0 2 2h2a2 2 0 0 0 2-2v-3"/> <path d="M28 35v3a2 2 0 0 0 2 2h2a2 2 0 0 0 2-2v-3"/> <circle cx="16" cy="30" r="2"/> <circle cx="32" cy="30" r="2"/> <path d="M18 9h12"/> <path d="M20 9l4-3 4 3"/> <path d="M24 6v5"/> </svg>