<svg xmlns="http://www.w3.org/2000/svg" width="68" height="73" viewBox="0 0 68 73" fill="none"><g clip-path="url(#clip0_1142_23038)"><path d="M67.2372 71.1114C67.2652 70.7894 67.1129 70.6767 66.8044 70.7089C66.4945 70.7445 66.1806 70.7087 65.8866 70.6042C65.3897 70.419 65.3376 70.3023 65.5941 69.8474C65.8633 69.3836 66.0428 68.8728 66.1231 68.342C66.4426 66.2499 66.4208 64.1196 66.0589 62.0345C65.9493 61.3905 65.702 60.7782 65.3339 60.2396C64.9659 59.701 64.4859 59.2491 63.927 58.9149C62.0515 57.7758 60.0398 57.7074 58 58.3474C56.0924 58.9592 54.9863 60.3238 54.5776 62.28C54.4002 63.3043 54.3383 64.3453 54.3933 65.3835C54.3318 66.4612 54.4004 67.5425 54.5976 68.6037C54.739 69.3918 55.072 70.1326 55.5669 70.7604C56.0619 71.3882 56.7036 71.8834 57.435 72.2022C58.2924 72.5985 59.2233 72.8091 60.1672 72.8202C61.111 72.8313 62.0466 72.6427 62.9131 72.2666C63.0589 72.1968 63.2213 72.17 63.3816 72.1893C63.5419 72.2085 63.6935 72.273 63.8188 72.3753C64.16 72.6126 64.5446 72.7799 64.9503 72.8676C65.356 72.9553 65.775 72.9618 66.1832 72.8865C67.2371 72.7014 67.2372 72.6973 67.2372 71.6024C67.2372 71.4133 67.2091 71.2684 67.2372 71.1114ZM63.2016 65.4479H63.1776C63.1776 66.2087 63.1776 66.9734 63.1776 67.7342C63.1776 67.863 63.2137 68.0401 63.0334 68.0844C62.9653 68.0993 62.8942 68.0911 62.8311 68.0613C62.7681 68.0315 62.7166 67.9816 62.6847 67.9193C62.6655 67.8908 62.6441 67.8639 62.6206 67.8389C61.6949 66.8366 61.4184 66.8487 60.5287 67.9435C60.3965 68.1045 60.3404 68.2615 60.5287 68.4467C60.8092 68.7526 61.0697 69.0786 61.3302 69.3926C61.6588 69.7951 61.5946 69.9602 61.0857 70.0769C60.6795 70.1906 60.2529 70.2101 59.8382 70.1338C59.4234 70.0575 59.0312 69.8875 58.6915 69.6366C58.3518 69.3857 58.0734 69.0605 57.8772 68.6856C57.681 68.3107 57.5722 67.8959 57.5591 67.4725C57.4729 66.0704 57.4729 64.6643 57.5591 63.2622C57.6312 62.0828 58.1963 61.0845 59.3946 60.7464C60.5046 60.4365 61.6307 60.4928 62.4923 61.4669C62.9715 62.0261 63.2309 62.7418 63.2217 63.4796C63.2017 64.1316 63.2016 64.7878 63.2016 65.4479Z" fill="white"></path><path d="M52.5659 58.295C51.8926 58.295 51.2194 58.295 50.5621 58.295C50.1373 58.295 49.9971 58.4278 50.0011 58.8666C50.0212 61.0321 50.0011 63.1977 50.0011 65.3633C50.0011 67.5289 50.0011 69.6622 50.0011 71.8037C50.0011 72.2867 50.1213 72.5041 50.6382 72.4719C51.2589 72.4377 51.8811 72.4377 52.5018 72.4719C52.9747 72.496 53.1389 72.3109 53.1389 71.8399C53.1389 67.5061 53.1389 63.1736 53.1389 58.8424C53.1189 58.4117 52.9426 58.291 52.5659 58.295Z" fill="white"></path><path d="M8.17115 71.3492C8.0633 71.3379 7.95886 71.3048 7.86413 71.2517C7.76941 71.1987 7.68644 71.127 7.62012 71.0408C7.55381 70.9546 7.50555 70.8558 7.47836 70.7504C7.45116 70.645 7.44551 70.5351 7.46182 70.4274C7.46182 69.6224 7.46182 68.8173 7.46182 67.9881C7.46182 67.2435 7.46182 66.4948 7.46182 65.7501C7.45776 65.1945 7.33767 64.646 7.10921 64.14C6.44397 62.7191 4.70475 62.3488 3.32218 62.5299C1.93961 62.7111 0.93774 63.3027 0.516956 64.7035C0.220404 65.7018 0.332546 65.8386 1.35044 65.8668C1.77523 65.8668 1.93156 65.7259 1.98365 65.3194C2.00341 65.0565 2.09559 64.8044 2.24987 64.5911C2.40416 64.3778 2.61444 64.2119 2.85725 64.1118C3.42075 63.8793 4.04519 63.8411 4.63263 64.0031C4.94873 64.0654 5.23501 64.2319 5.44625 64.4762C5.6575 64.7204 5.78159 65.0285 5.79876 65.3516C5.83082 65.5891 5.82285 65.8346 5.83888 66.0761C5.86693 66.4787 5.69858 66.6437 5.30184 66.6598C4.23562 66.7398 3.18315 66.9507 2.16798 67.2877C1.80088 67.3756 1.45519 67.5369 1.15163 67.7621C0.848077 67.9873 0.592878 68.2718 0.401311 68.5983C0.209745 68.9249 0.0857646 69.2869 0.0367652 69.6628C-0.0122342 70.0386 0.0148217 70.4205 0.11621 70.7856C0.190715 71.2163 0.395798 71.6134 0.703534 71.9225C1.01127 72.2316 1.40665 72.4376 1.83543 72.5125C2.4982 72.685 3.19623 72.6629 3.84689 72.4489C4.49754 72.2349 5.07347 71.8378 5.50623 71.3049C5.75068 71.0151 5.90699 71.0634 6.02722 71.3653C6.37587 72.3515 7.15725 72.5286 8.05893 72.5044C8.31941 72.5044 8.56387 72.4723 8.56387 72.1341C8.56387 71.796 8.628 71.4136 8.17115 71.3492ZM3.07768 71.3734C2.51263 71.3452 2.03977 71.1922 1.79531 70.673C1.65066 70.3945 1.59032 70.0795 1.62165 69.7669C1.65298 69.4544 1.77459 69.1579 1.97162 68.9139C2.4966 68.2136 3.3061 68.1089 4.07152 67.9237C4.42418 67.8392 4.78883 67.8231 5.1455 67.7587C5.77066 67.642 5.82282 67.6822 5.81481 68.3383V68.6241C5.97511 70.1456 4.29195 71.4378 3.08972 71.3734H3.07768Z" fill="white"></path><path d="M29.3947 66.4986C29.3265 64.486 28.1123 62.8759 26.1045 62.574C23.5598 62.1715 21.3397 63.7494 21.2716 66.4342C21.2716 67.2111 21.2716 67.992 21.2716 68.7728C21.2501 69.7015 21.5622 70.6069 22.151 71.3232C22.7397 72.0395 23.5657 72.5188 24.4776 72.6733C25.3416 72.8743 26.2474 72.7833 27.0546 72.4143C27.8619 72.0453 28.5253 71.419 28.9419 70.6326C29.3511 69.7225 29.5102 68.719 29.4027 67.7263C29.3947 67.2231 29.4067 66.8609 29.3947 66.4986ZM25.5996 71.2202C25.0643 71.2711 24.5285 71.1284 24.0888 70.8177C23.9525 70.7452 23.8483 70.6205 23.688 70.6809L23.66 70.6526C23.7602 70.3025 23.4075 70.1535 23.3114 69.8838C23.1802 69.5843 23.1015 69.2643 23.0789 68.9379C23.0789 68.0523 23.0548 67.1708 23.0789 66.2853C23.0684 65.9911 23.1199 65.6981 23.23 65.4253C23.3402 65.1526 23.5065 64.9063 23.718 64.7026C23.9295 64.4989 24.1815 64.3424 24.4574 64.2433C24.7334 64.1443 25.027 64.1049 25.3191 64.1278C26.7778 64.1278 27.5593 64.9046 27.5794 66.3859C27.5794 67.2151 27.5794 68.0483 27.5794 68.8775C27.5875 69.4425 27.3913 69.9914 27.0273 70.4222C26.6632 70.8529 26.156 71.1365 25.5996 71.2202Z" fill="white"></path><path d="M36.6322 63.2019C36.6522 62.8396 36.4919 62.6745 36.1192 62.6504C35.6542 62.612 35.1869 62.6871 34.7571 62.8693C34.3272 63.0516 33.9476 63.3355 33.6506 63.6969C33.4503 63.9224 33.4142 64.4738 33.0375 64.333C32.6608 64.1921 32.8612 63.7171 32.8331 63.387C32.781 62.7752 32.745 62.755 31.9876 62.747C31.5067 62.747 31.3664 62.9563 31.3704 63.4152C31.3704 64.7999 31.3704 66.1845 31.3704 67.5732V71.4697C31.3704 72.4639 31.3704 72.4639 32.3602 72.4639C33.0455 72.4639 33.0575 72.4639 33.0575 71.7716C33.0575 70.2138 33.0575 68.652 33.0575 67.0943C33.0507 66.3843 33.3192 65.6996 33.8061 65.185C34.293 64.6704 34.9602 64.3662 35.6664 64.337C36.6202 64.2847 36.6201 64.2846 36.6081 63.3065C36.6141 63.2712 36.6222 63.2363 36.6322 63.2019Z" fill="white"></path><path d="M20.3218 62.6466C19.8209 62.6466 19.32 62.6466 18.819 62.6466C18.5265 62.6466 18.3581 62.542 18.3742 62.22C18.3636 61.7883 18.3851 61.3564 18.4383 60.9279C18.6067 60.1228 18.839 59.8733 19.6766 59.8612C20.7987 59.8612 20.8187 59.8129 20.7867 58.6536C20.7867 58.2511 20.6023 58.0821 20.1896 58.0499C19.5524 58.0329 18.917 58.124 18.3101 58.3195C17.9169 58.4231 17.5563 58.6252 17.2619 58.9067C16.9676 59.1883 16.7491 59.5402 16.627 59.9296C16.4158 60.661 16.3344 61.424 16.3865 62.1837C16.3865 62.4695 16.3304 62.6386 15.9857 62.6346C14.9318 62.6346 13.8778 62.6346 12.8279 62.6346C12.5634 62.6346 12.4512 62.534 12.4552 62.2643C12.4552 61.7812 12.4552 61.2942 12.4552 60.8112C12.4801 60.5619 12.5918 60.3294 12.7708 60.1549C12.9497 59.9803 13.1842 59.8749 13.433 59.8572C13.6254 59.8572 13.8337 59.8572 14.0061 59.8572C14.6673 59.8572 14.8076 59.7163 14.8076 59.0521C14.8143 58.8612 14.8049 58.6699 14.7795 58.4805C14.7394 58.2068 14.5911 58.078 14.2906 58.0579C13.7407 58.0681 13.1937 58.1397 12.6595 58.2712C12.2858 58.3198 11.9289 58.4568 11.6182 58.6709C11.3075 58.885 11.0518 59.1702 10.8722 59.503C10.4995 60.1309 10.5356 60.8313 10.5316 61.5156C10.5316 62.5903 10.5316 62.5943 9.48564 62.6225C9.23316 62.6225 8.99674 62.6507 8.90457 62.9445C8.63607 63.8099 8.93262 64.2326 9.80224 64.2366C10.4675 64.2366 10.5316 64.3051 10.5316 64.9934V71.4338C10.5316 72.7057 10.4355 72.5447 11.6377 72.5527C12.4151 72.5527 12.4392 72.5246 12.4392 71.7236C12.4392 69.401 12.4392 67.0784 12.4392 64.7559C12.4392 64.3533 12.5353 64.2044 12.9641 64.2205C13.9259 64.2527 14.8958 64.2447 15.8616 64.2205C16.2623 64.2205 16.3784 64.3332 16.3704 64.7196C16.3704 65.9272 16.3704 67.1106 16.3704 68.3061C16.3704 69.3124 16.3704 70.3188 16.3704 71.321C16.3704 72.4521 16.114 72.5809 17.6168 72.5568C18.3021 72.5568 18.3542 72.5004 18.3542 71.8121C18.3542 69.5056 18.3542 67.1992 18.3542 64.8968C18.3542 64.4299 18.4784 64.1601 19.0034 64.2245C19.2262 64.2386 19.4497 64.2386 19.6726 64.2245C20.8187 64.2245 20.8508 64.1843 20.7547 63.0572C20.7426 62.7835 20.6184 62.6426 20.3218 62.6466ZM18.1217 68.2538C18.1217 67.0462 18.1217 65.8387 18.1217 64.611C18.1217 65.8185 18.1217 67.0261 18.1217 68.2538C18.1217 69.4815 18.0977 70.6448 18.1217 71.8403C18.0977 70.6448 18.1217 69.4493 18.1217 68.2538Z" fill="white"></path><path d="M44.3305 58.0813C43.7254 58.0813 43.6372 58.1698 43.6372 58.7696C43.6372 60.2106 43.6372 61.6476 43.6372 63.0846C43.6715 63.2662 43.6463 63.4541 43.5651 63.62C42.4951 62.6177 41.3731 62.034 39.8823 62.5654C39.133 62.7905 38.4769 63.2543 38.0128 63.8866C37.5487 64.519 37.3018 65.2858 37.3094 66.0713C37.3094 66.9207 37.3094 67.77 37.3094 68.6193C37.2641 69.2913 37.3625 69.9651 37.5981 70.5957C37.7969 71.1362 38.1266 71.6183 38.5577 71.9986C38.9887 72.3788 39.5074 72.6451 40.0666 72.7734C41.6696 73.1155 42.8999 72.5117 43.9018 71.1351C43.9018 71.3323 43.9258 71.4168 43.9258 71.5014C43.9658 72.6083 43.7334 72.5842 45.0398 72.5761C45.6249 72.5761 45.7092 72.4835 45.7092 71.8636V59.4378C45.7011 58.0611 45.7011 58.0611 44.3305 58.0813ZM43.3607 69.9114C42.5192 71.3444 40.7158 71.8637 39.6177 70.3139C39.3394 69.8916 39.1929 69.3955 39.197 68.889C39.165 67.7539 39.0327 66.6148 39.3854 65.4958C39.467 65.1397 39.6537 64.8166 39.9211 64.5688C40.1885 64.321 40.5242 64.1601 40.8842 64.107C41.2827 64.0201 41.6975 64.0472 42.0814 64.1852C42.4654 64.3233 42.8031 64.5667 43.0562 64.8879C43.4754 65.3777 43.7008 66.0052 43.6894 66.651C43.6894 66.9811 43.6894 67.3111 43.6894 67.6412C43.6734 68.402 43.7855 69.1909 43.3607 69.9114ZM45.4126 65.3347C45.4126 63.2215 45.4126 61.0398 45.4126 58.8944C45.4006 61.0398 45.4126 63.1853 45.4126 65.3347Z" fill="white"></path><path d="M29.9397 20.9407L30.1562 21.0736V20.8401L29.8956 20.5785L28.1725 18.8476L27.0504 17.7246L26.9341 17.6079L26.333 17.0041L26.1126 16.7827L25.4755 16.1427C25.444 16.1211 25.4167 16.0938 25.3952 16.0622L25.1869 15.8528C25.1442 15.8302 25.1092 15.7951 25.0867 15.7522L23.7802 14.44C23.7151 14.4124 23.6585 14.3679 23.616 14.3112C23.5719 14.2508 23.5238 14.1904 23.4758 14.1341L22.3856 13.0392C22.2454 12.9064 22.1091 12.7735 21.9849 12.6367L21.3478 11.9967C21.1714 11.9323 21.0191 12.0732 20.7025 12.3992L18.5064 14.601C16.5027 16.6136 14.5271 18.594 12.5474 20.5986C12.4589 20.6686 12.3758 20.7453 12.2989 20.828L20.979 29.8727L29.9397 20.9407ZM29.8717 20.663C29.8681 20.6884 29.8681 20.7141 29.8717 20.7395C29.8733 20.7133 29.8787 20.6876 29.8877 20.663H29.8717ZM20.0213 28.6289C20.1554 28.6629 20.2767 28.7356 20.37 28.8382C20.2811 28.7383 20.1657 28.6657 20.0373 28.6289H20.0213Z" fill="white"></path><path d="M30.1802 28.3432V26.7331V22.0518L21.0993 30.9073L12.367 22.1202C12.367 24.3153 12.3604 26.5077 12.347 28.6974C12.3547 28.7824 12.3722 28.8661 12.3991 28.947C12.375 29.3495 12.347 29.7842 12.323 30.2029L12.4392 30.7181C12.4031 30.545 12.363 30.3719 12.323 30.2029V44.5126L12.347 44.6897C12.3374 44.7198 12.3306 44.7508 12.327 44.7822L12.5954 45.0519L12.6635 45.0841C12.6619 45.1015 12.6619 45.1191 12.6635 45.1365L12.8639 45.3417C12.8878 45.346 12.9123 45.346 12.9361 45.3417C12.9511 45.3467 12.9647 45.3551 12.9758 45.3663C12.987 45.3775 12.9953 45.3911 13.0002 45.4062V45.4826L13.2367 45.7201H13.2968L13.4491 45.8731C13.4491 45.8731 13.4491 45.9133 13.4491 45.9294L13.6174 46.0985H13.7135L13.8298 46.2474C13.8298 46.2756 13.8298 46.2957 13.8298 46.3159L14.0101 46.497H14.0702L14.2466 46.6499C14.2443 46.6687 14.2443 46.6876 14.2466 46.7063L14.3908 46.8552C14.3923 46.8432 14.3923 46.8311 14.3908 46.819L14.5831 46.8673L14.6393 47.0646H14.6032L14.6913 47.1491C14.692 47.1357 14.692 47.1222 14.6913 47.1088L14.8837 47.1692L15.0601 47.4631C15.0562 47.4857 15.0562 47.5089 15.0601 47.5315L15.1362 47.612H15.1963C15.2283 47.6245 15.2541 47.6491 15.2684 47.6804C15.2661 47.7032 15.2661 47.7261 15.2684 47.7488L15.4728 47.9501H15.5289C15.549 47.9903 15.577 48.0226 15.597 48.0588L16.5668 49.0289L16.6631 49.0973L16.7071 49.1738L17.4164 49.8863C17.4445 49.8863 17.4645 49.9184 17.4926 49.9305C17.5206 49.9426 17.5407 49.999 17.5607 50.0312L18.3862 50.8603L18.5385 50.965C18.5666 51.0133 18.6027 51.0616 18.6347 51.1099L19.5404 52.0196C19.5857 52.0501 19.6325 52.0784 19.6806 52.1042C19.7062 52.1534 19.7357 52.2005 19.7689 52.245L20.6825 53.1668L20.8148 53.2513L20.8629 53.3479L21.1594 53.6418H21.1995L24.4054 50.4216L25.0266 49.8017L25.8562 48.9645L30.1962 44.6051L30.1562 28.2868L30.1802 28.3432ZM16.0459 48.3406C16.1386 48.461 16.239 48.5753 16.3465 48.6827C16.2378 48.5636 16.1374 48.4372 16.0459 48.3043V48.3406ZM16.8874 49.1818C16.9776 49.3019 17.0768 49.4149 17.184 49.5199C17.0753 49.4033 16.9761 49.2782 16.8874 49.1456V49.1818ZM17.713 50.0191C17.8093 50.15 17.918 50.2714 18.0376 50.3813C17.9162 50.26 17.8074 50.1264 17.713 49.9829V50.0191ZM21.2396 35.5765C21.2396 35.6208 21.2396 35.6691 21.2396 35.7134C21.2396 35.6329 21.2436 35.5886 21.2396 35.5403V35.5765ZM20.0373 34.9325C20.4381 35.0251 20.7868 35.1941 21.1635 35.335C20.7868 35.1579 20.422 34.9889 20.0373 34.8963V34.9325ZM21.0312 53.3479C21.1742 53.1647 21.2556 52.9406 21.2636 52.7079C21.2459 52.9239 21.165 53.1297 21.0312 53.2996V53.3479ZM21.1715 50.2445C21.1916 50.3038 21.2184 50.3605 21.2516 50.4135V50.8402C21.2516 50.6993 21.2516 50.5544 21.2516 50.4135C21.2156 50.3491 21.1887 50.28 21.1715 50.2082V50.2445ZM21.472 53.2715C21.7678 53.0425 22.0367 52.7805 22.2735 52.4906C22.0346 52.7678 21.7658 53.0176 21.472 53.2352V53.2715ZM21.2075 39.9882C21.9525 40.1998 22.7216 40.3135 23.4957 40.3263C22.7204 40.3043 21.9512 40.1812 21.2075 39.96V39.9882Z" fill="white"></path><path d="M36.4438 20.8119L45.124 29.8566L54.0887 20.9407L54.3051 21.0736V20.8401L54.0486 20.5785L52.3215 18.8476L51.2034 17.7246L51.0871 17.6079L50.486 17.0041L50.2656 16.7827C50.2209 16.7686 50.1795 16.7456 50.1437 16.7152C50.1079 16.6848 50.0785 16.6475 50.0572 16.6056C50.0996 16.6892 50.173 16.7528 50.2616 16.7827L49.6284 16.1427C49.596 16.1222 49.5686 16.0947 49.5482 16.0622L49.3358 15.8528C49.2941 15.8289 49.2595 15.7942 49.2356 15.7522L47.9332 14.44C47.8659 14.4143 47.8075 14.3696 47.7649 14.3112C47.7208 14.2508 47.6727 14.1904 47.6246 14.1341L46.5346 13.0392C46.3984 12.9064 46.2621 12.7735 46.1339 12.6367L45.4967 11.9967C45.3244 11.9323 45.1721 12.0732 44.8555 12.3992L42.6554 14.601C40.6517 16.6136 38.6801 18.594 36.6964 20.5986C36.607 20.6633 36.5226 20.7346 36.4438 20.8119Z" fill="white"></path><path d="M54.3132 28.3432C54.3132 28.2104 54.3132 28.0816 54.3132 27.9407C54.3132 28.0735 54.3132 28.2023 54.3132 28.3432V26.7331V22.0518L45.2282 30.9073L36.496 22.1202C36.496 24.3153 36.496 26.5077 36.496 28.6974C36.5043 28.7819 36.5203 28.8655 36.544 28.947C36.52 29.3495 36.496 29.7842 36.4679 30.2029V44.5126L36.492 44.6897C36.4869 44.7203 36.4869 44.7516 36.492 44.7822L36.7565 45.0519L36.8245 45.0841C36.8245 45.0841 36.8246 45.1204 36.8446 45.1365L37.049 45.3417C37.0715 45.3462 37.0946 45.3462 37.1171 45.3417C37.1321 45.3467 37.1457 45.3551 37.1568 45.3663C37.1679 45.3775 37.1764 45.3911 37.1813 45.4062V45.4826L37.4217 45.7201H37.4778L37.6341 45.8731C37.6328 45.8919 37.6328 45.9107 37.6341 45.9294L37.7984 46.0985H37.8946L38.0107 46.2474C38.0083 46.2702 38.0083 46.2931 38.0107 46.3159L38.1871 46.497H38.2472L38.4275 46.6499C38.4185 46.6678 38.4117 46.6867 38.4075 46.7063L38.5518 46.8552C38.5531 46.8432 38.5531 46.8311 38.5518 46.819L38.7441 46.8673L38.8003 47.0646H38.7602L38.8483 47.1491C38.8506 47.1357 38.8506 47.1222 38.8483 47.1088L39.0407 47.1692C39.1008 47.2658 39.1609 47.3624 39.217 47.4631C39.2131 47.4857 39.2131 47.5089 39.217 47.5315L39.2972 47.612H39.3573C39.3729 47.6178 39.387 47.627 39.3988 47.6388C39.4105 47.6506 39.4196 47.6648 39.4254 47.6804C39.421 47.703 39.421 47.7262 39.4254 47.7488L39.6258 47.9501H39.6819C39.7036 47.9878 39.7277 48.0241 39.754 48.0588L40.7198 49.0289C40.7516 49.054 40.7851 49.0768 40.82 49.0973C40.8323 49.1241 40.8471 49.1497 40.8641 49.1738L41.5694 49.8863L41.6495 49.9305C41.6699 49.9656 41.6927 49.9992 41.7176 50.0312L42.5432 50.8603C42.5913 50.8966 42.6394 50.9328 42.6915 50.965L42.7877 51.1099L43.6934 52.0196C43.7415 52.0478 43.7855 52.08 43.8336 52.1042C43.8817 52.1283 43.8937 52.1967 43.9217 52.245L44.8355 53.1668L44.9717 53.2513L45.0159 53.3479L45.3124 53.6418H45.3564L48.5624 50.4216L49.1796 49.8017L50.0132 48.9645L54.3532 44.6051L54.3092 28.2868L54.3132 28.3432ZM36.7404 44.8064C36.7404 43.623 36.7498 42.4396 36.7685 41.2562C36.7578 42.4288 36.7524 43.6069 36.7524 44.7903L36.7404 44.8064ZM40.1829 48.3406C40.2744 48.462 40.3749 48.5763 40.4834 48.6827C40.3734 48.5648 40.2729 48.4382 40.1829 48.3043V48.3406ZM41.0244 49.1818C41.1132 49.3018 41.211 49.4148 41.3169 49.5199C41.2095 49.4033 41.1117 49.2781 41.0244 49.1456V49.1818ZM41.8459 50.0191C41.9422 50.15 42.051 50.2714 42.1705 50.3813C42.0491 50.26 41.9403 50.1264 41.8459 49.9829V50.0191ZM45.3765 35.5765C45.3765 35.6208 45.3765 35.6691 45.3765 35.7134C45.3725 35.6329 45.3765 35.5886 45.3765 35.5403V35.5765ZM44.1743 34.9325C44.575 35.0251 44.9237 35.1941 45.3004 35.335C44.9197 35.1579 44.555 34.9889 44.1703 34.8963L44.1743 34.9325ZM45.3084 50.1962C45.3283 50.2563 45.3566 50.3132 45.3926 50.3652V50.7919C45.3926 50.651 45.3926 50.5061 45.3926 50.3652C45.3574 50.3164 45.3278 50.2637 45.3044 50.2082L45.3084 50.1962ZM45.609 53.2232C45.9056 52.9953 46.1746 52.7331 46.4105 52.4423C46.1741 52.7376 45.9037 53.0038 45.605 53.2352L45.609 53.2232ZM45.3444 39.9399C46.0894 40.1515 46.8586 40.2652 47.6327 40.278C46.8581 40.2717 46.0877 40.1648 45.3404 39.96L45.3444 39.9399ZM53.6759 34.3529C53.7511 34.3563 53.8258 34.3396 53.8924 34.3046C53.8274 34.3502 53.7511 34.3767 53.6719 34.381L53.6759 34.3529ZM54.1889 36.7278C54.1889 36.6593 54.1889 36.5909 54.1889 36.5225C54.1889 36.611 54.1849 36.6795 54.1849 36.7479L54.1889 36.7278Z" fill="white"></path><path d="M33.5826 18.1197L33.3621 17.9023L33.3981 18.0593C33.4582 18.0835 33.5184 18.0996 33.5826 18.1197Z" fill="white"></path><path d="M33.5866 17.2498L41.9621 9.08258L42.3348 9.30799C42.3563 9.16266 42.3378 9.01419 42.2813 8.87867C42.2248 8.74314 42.1324 8.62572 42.0142 8.53916C39.3105 5.83421 36.6121 3.12657 33.9191 0.416245C33.4703 -0.0345815 33.4062 -0.0345815 32.9614 0.416245C30.2897 3.09973 27.6074 5.79531 24.9144 8.50295L25.4954 8.96986L33.5866 17.2498Z" fill="white"></path><path d="M32.9614 41.5022C33.0367 41.6085 33.1495 41.6819 33.2769 41.7074C33.4043 41.7328 33.5366 41.7084 33.6467 41.639C33.9654 41.4707 34.214 41.1939 34.348 40.8582C34.5344 40.7834 34.7037 40.6714 34.8457 40.5288C34.9876 40.3863 35.0992 40.2162 35.1735 40.029C35.2252 40.0189 35.2751 40.0012 35.3218 39.9766V20.74L42.2707 13.7603V13.72C42.419 13.4866 42.3228 13.233 42.3348 12.9874C42.447 12.915 42.435 12.8466 42.3348 12.7822C42.3348 12.6775 42.3348 12.5688 42.3348 12.4641C42.5753 11.7517 42.3949 11.0151 42.439 10.2905C42.4631 10.1439 42.4631 9.99434 42.439 9.84774L33.7348 18.1639L33.6788 18.2162L33.5826 18.1196C33.5185 18.0995 33.4583 18.0834 33.3981 18.0592L33.3621 17.9022L32.8251 17.3709C32.8009 17.354 32.7793 17.3337 32.761 17.3105L24.5337 9.18359V9.45328C24.5337 10.846 24.5243 12.2374 24.5056 13.6274L31.3704 20.5267V39.884C31.9115 40.4194 32.4444 40.9507 32.9614 41.5022ZM35.0974 28.7985C35.0974 29.2614 35.0974 29.7284 35.0974 30.1913C35.0974 29.7284 35.0814 29.2614 35.0934 28.7985H35.0974ZM35.0974 39.6264C35.0253 39.7834 34.8449 39.88 34.7808 40.029C34.861 39.88 35.0412 39.7834 35.1134 39.6143L35.0974 39.6264ZM33.9512 41.1319C33.9244 41.1598 33.8897 41.179 33.8518 41.1869C33.8139 41.1948 33.7746 41.1911 33.7388 41.1761C33.7765 41.1948 33.8192 41.2006 33.8604 41.1926C33.9017 41.1846 33.9392 41.1633 33.9673 41.1319H33.9512ZM33.3461 19.6371C33.3461 19.2869 33.3461 18.9367 33.326 18.5865L33.3461 19.6371ZM33.314 24.2138C33.2054 24.2408 33.0908 24.225 32.9935 24.1695C33.0438 24.1991 33.0995 24.2183 33.1573 24.2259C33.2151 24.2335 33.2738 24.2294 33.3301 24.2138H33.314Z" fill="white"></path></g><defs><clipPath id="clip0_1142_23038"><rect width="67.2412" height="72.8446" fill="white" transform="translate(0 0.078125)"></rect></clipPath></defs></svg>