<svg xmlns="http://www.w3.org/2000/svg" width="70" height="73" viewBox="0 0 70 73" fill="none"><g clip-path="url(#clip0_1114_24168)"><path fill-rule="evenodd" clip-rule="evenodd" d="M62.3698 1.1582L62.6724 1.16437C66.5859 1.32406 69.7203 4.56759 69.7203 8.53111V63.6325L69.7142 63.9359C69.555 67.8613 66.3218 71.0049 62.3698 71.0049H7.42901L7.12647 70.9988C3.21289 70.8391 0.0776367 67.5964 0.0776367 63.6325V8.53111L0.0837809 8.22769C0.243013 4.30264 3.47706 1.1582 7.42901 1.1582H62.3698ZM62.3698 3.03052H7.42901L7.14719 3.03769C4.25336 3.18529 1.94448 5.59275 1.94448 8.53111V63.6325C1.94448 66.6656 4.40472 69.1331 7.42901 69.1331H62.3698L62.6516 69.1259C65.545 68.9783 67.8539 66.5708 67.8539 63.6325V8.53111L67.8468 8.24847C67.6996 5.34616 65.2992 3.03052 62.3698 3.03052ZM34.9736 16.8462L35.2217 16.8533C37.4378 16.9807 39.1925 18.8042 39.1925 21.0391V41.112L39.1993 41.4026C39.3532 44.6764 42.0947 47.2702 45.4188 47.2702L45.7106 47.2635C48.9979 47.1126 51.6168 44.4241 51.6185 41.112V35.7823L51.6256 35.5367C51.754 33.3418 53.5914 31.5903 55.8373 31.5903L56.0839 31.5974C58.287 31.7254 60.0495 33.5564 60.0495 35.7823L60.0544 41.112L60.0489 41.5064C59.8338 49.3678 53.3647 55.6676 45.4188 55.6676L44.9311 55.6597C41.0447 55.5328 37.5378 53.896 34.9918 51.333L34.6688 51.6485C32.0453 54.1333 28.4827 55.6676 24.5627 55.6676L24.1661 55.6624C16.261 55.4536 9.93283 49.0207 9.93283 41.112L9.93808 40.7177C10.1477 32.8562 16.6063 26.5547 24.5627 26.5547L25.1137 26.5647C27.1253 26.6378 29.0389 27.1105 30.7606 27.9214V21.0391C30.7606 18.7214 32.6503 16.8462 34.9736 16.8462ZM58.0213 51.6249C59.145 51.6249 60.0545 52.5233 60.0545 53.6409C60.0545 54.7621 59.145 55.6653 58.0213 55.6653C56.9047 55.6653 55.9899 54.7621 55.9899 53.6409C55.9899 52.5233 56.9047 51.6249 58.0213 51.6249ZM58.0213 52.0282C57.1215 52.0282 56.3955 52.7452 56.3955 53.6409C56.3955 54.5326 57.1215 55.2634 58.0213 55.2634C58.9206 55.2634 59.6497 54.5326 59.6497 53.6409C59.6497 52.7452 58.9206 52.0282 58.0213 52.0282ZM58.1358 52.5524C58.553 52.5524 58.8436 52.8612 58.8436 53.2244C58.8436 53.5328 58.649 53.7288 58.4175 53.8122L58.8938 54.7364H58.4486L58.0012 53.871H57.7266V54.7364H57.3187V52.5524H58.1358ZM58.0829 52.8946H57.7266V53.5515H58.0829C58.3006 53.5515 58.4486 53.4031 58.4486 53.2244C58.4486 53.039 58.3006 52.8946 58.0829 52.8946ZM24.5627 34.9436L24.2709 34.9503C20.984 35.1018 18.3656 37.8004 18.3656 41.112C18.3656 44.5215 21.1403 47.2702 24.5627 47.2702L24.8544 47.2635C28.1422 47.1126 30.7606 44.4241 30.7606 41.112L30.7538 40.8215C30.6015 37.5475 27.8881 34.9436 24.5627 34.9436Z" fill="white"></path></g><defs><clipPath id="clip0_1114_24168"><rect width="69.6427" height="71.2437" fill="white" transform="translate(0.0776367 0.878906)"></rect></clipPath></defs></svg>