<svg xmlns="http://www.w3.org/2000/svg" width="137" height="57" viewBox="0 0 137 57" fill="none"><g clip-path="url(#clip0_1117_24191)"><path d="M136.332 1.29137C136.332 0.0936127 136.332 0.093618 135.112 0.093618H107.99C98.9497 0.093618 89.911 0.093618 80.8741 0.093618C79.6058 0.093618 79.6165 -0.163058 79.6165 1.35018C79.6165 6.28382 79.6165 11.2192 79.6165 16.1564C79.6165 17.0173 79.6539 17.0761 80.5208 17.0815H135.358C136.294 17.0815 136.332 17.0387 136.332 16.0923V1.29137Z" fill="white"></path><path d="M115.188 19.7764C103.593 19.7764 91.9981 19.7764 80.4031 19.7764C79.6807 19.7764 79.6272 19.8298 79.6272 20.5624C79.6272 25.717 79.6272 30.8717 79.6272 36.0264C79.6272 36.775 79.67 36.8177 80.3978 36.8177H115.241C115.675 36.8177 115.916 36.7001 115.916 36.2081C115.916 30.9572 115.916 25.7046 115.916 20.4501C115.91 19.9314 115.691 19.7764 115.188 19.7764Z" fill="white"></path><path d="M95.7833 39.6357C90.6459 39.6357 85.5084 39.6357 80.3656 39.6357C79.7876 39.6357 79.6057 39.8229 79.6111 40.395C79.6111 42.9723 79.6111 45.5497 79.6111 48.127C79.6111 50.6616 79.6111 53.1979 79.6111 55.736C79.6111 56.6129 79.611 56.6503 80.5101 56.6503H95.8101C96.5058 56.6503 96.6289 56.5167 96.6289 55.8002C96.6289 50.6812 96.6289 45.5657 96.6289 40.4538C96.6235 39.7159 96.5486 39.6357 95.7833 39.6357Z" fill="white"></path><path d="M48.246 36.3205C47.2791 34.4026 46.3087 32.483 45.3348 30.5616C45.1635 30.2247 45.0459 29.92 45.5328 29.7542C47.8607 28.9575 48.8133 27.0165 48.7437 24.6477C48.7525 23.437 48.2853 22.2712 47.4426 21.4011C46.5999 20.5311 45.449 20.0265 44.2377 19.9957C41.6422 19.8887 39.0415 19.9368 36.446 19.8994C35.959 19.8994 35.8412 20.1293 35.8466 20.5732C35.8466 25.4444 35.8466 30.321 35.8466 35.1922C35.8466 37.0103 35.4934 36.7964 37.5002 36.8445C38.3244 36.8445 38.3564 36.8445 38.351 35.9569C38.351 34.2619 38.351 32.5615 38.351 30.8664C38.351 30.3317 38.5277 30.0964 39.0896 30.1178C39.8668 30.1579 40.6456 30.1579 41.4228 30.1178C41.6601 30.0925 41.8991 30.1471 42.1018 30.2731C42.3044 30.399 42.4591 30.5891 42.5413 30.813C43.4511 32.6524 44.3679 34.4882 45.2919 36.3205C45.3882 36.5023 45.5756 36.759 45.7254 36.7697C46.5924 36.8125 47.454 36.7697 48.4012 36.7697C48.3577 36.6172 48.3059 36.4672 48.246 36.3205ZM41.289 27.7062C40.5077 27.7062 39.7318 27.7062 38.9505 27.7062C38.5116 27.7062 38.335 27.5191 38.3403 27.0967C38.3403 25.701 38.3403 24.3001 38.3403 22.9045C38.3403 22.4607 38.5438 22.3003 38.9612 22.3003C40.5185 22.3003 42.0757 22.2522 43.633 22.3003C43.9848 22.2938 44.3339 22.3612 44.658 22.498C44.9821 22.6348 45.2738 22.838 45.5144 23.0945C45.755 23.351 45.939 23.6551 46.0547 23.9871C46.1703 24.3191 46.215 24.6716 46.1857 25.022C46.2108 25.373 46.1605 25.7253 46.0382 26.0554C45.9159 26.3854 45.7244 26.6855 45.4767 26.9356C45.2289 27.1857 44.9305 27.3801 44.6014 27.5056C44.2724 27.6311 43.9203 27.6849 43.5687 27.6635C42.8035 27.7223 42.0436 27.7062 41.289 27.7062Z" fill="white"></path><path d="M26.567 49.4321C26.6582 49.3933 26.7459 49.3467 26.8292 49.2931C29.002 48.106 29.687 45.9993 29.2642 43.5556C29.1748 42.8562 28.9041 42.1923 28.4789 41.6296C28.0537 41.0668 27.4887 40.6248 26.84 40.3473C25.9189 39.9705 24.9393 39.7569 23.9448 39.7163C21.6865 39.6308 19.4229 39.7164 17.1645 39.6789C16.6294 39.6789 16.4795 39.8875 16.4849 40.3954C16.4849 42.9728 16.4849 45.5501 16.4849 48.1275C16.4849 50.7048 16.4849 53.2821 16.4849 55.8594C16.4849 56.3941 16.6614 56.6775 17.2448 56.6401C17.6226 56.6187 18.0015 56.6187 18.3793 56.6401C18.8449 56.6401 19.0161 56.4636 19.0108 55.9984C19.0108 54.1804 19.0108 52.3623 19.0108 50.5443C19.0108 50.1005 19.1553 49.9347 19.5941 49.9454C20.4771 49.9454 21.3547 49.9454 22.2324 49.9454C22.4195 49.924 22.6085 49.9648 22.77 50.0614C22.9316 50.1581 23.0567 50.3052 23.126 50.4802C24.0305 52.3249 24.9403 54.1697 25.8714 55.9984C25.9945 56.2391 26.2621 56.5331 26.4922 56.5706C27.2033 56.6432 27.9188 56.6628 28.6328 56.6294C28.9592 56.6294 29.0769 56.4208 28.9057 56.0947C27.9799 54.2873 27.0648 52.4747 26.139 50.6674C25.6681 49.7851 25.6626 49.7904 26.567 49.4321ZM24.7851 47.427C23.0137 47.5339 21.2317 47.5072 19.4336 47.5286C19.0804 47.5286 18.9518 47.3147 18.9518 46.9939C18.9518 45.568 18.9518 44.1313 18.9518 42.684C18.9518 42.2777 19.1231 42.0959 19.5245 42.1012H21.8632C22.5642 42.1012 23.2652 42.0745 23.9609 42.1012C26.4601 42.2242 27.2147 44.1117 26.535 46.0795C26.4097 46.452 26.1765 46.779 25.8649 47.0189C25.5533 47.2588 25.1775 47.4008 24.7851 47.427Z" fill="white"></path><path d="M40.4114 39.7696C37.7356 38.9515 34.696 39.6305 32.9193 42.0688C31.5225 43.9617 31.0997 46.1059 31.1586 48.6512C31.1244 50.4296 31.6038 52.1802 32.5393 53.6935C33.2949 54.9433 34.438 55.9125 35.7951 56.454C37.1521 56.9954 38.649 57.0794 40.0582 56.6932C40.488 56.6069 40.905 56.4668 41.2997 56.2762C43.7186 54.9929 44.9334 52.8433 45.3401 50.25C45.6484 48.4689 45.5514 46.6414 45.0564 44.9028C44.2858 42.4699 42.9694 40.5503 40.4114 39.7696ZM41.8134 52.4904C41.3717 53.1858 40.7286 53.7302 39.9695 54.0511C39.2104 54.3721 38.3714 54.4544 37.5643 54.287C35.6057 53.9983 34.5675 52.6829 34.0698 50.9451C33.436 48.8641 33.538 46.6287 34.3588 44.6141C34.6101 43.975 35.0141 43.4071 35.5356 42.9599C36.057 42.5127 36.6801 42.1998 37.3503 42.0484C38.0206 41.8971 38.7177 41.912 39.3809 42.0917C40.0441 42.2714 40.6533 42.6105 41.1552 43.0794C41.8326 43.8075 42.3165 44.6936 42.5627 45.6568C42.7811 46.607 42.9101 47.5754 42.948 48.5496C42.9443 49.9431 42.5513 51.3079 41.8134 52.4904Z" fill="white"></path><path d="M51.0341 17.0766C51.7673 17.0766 51.8315 16.991 51.8261 16.2317C51.8261 14.1945 51.8261 12.1572 51.8261 10.1199C51.8261 9.69752 51.9652 9.48895 52.4094 9.48895C54.632 9.48895 56.8512 9.48895 59.0667 9.48895C59.4948 9.48895 59.6714 9.69217 59.666 10.1199C59.666 12.1786 59.666 14.2319 59.6339 16.2905C59.6339 16.9482 59.7463 17.0712 60.3832 17.0766C60.7471 17.0766 61.1056 17.0766 61.4535 17.0766C61.9886 17.1193 62.1973 16.9108 62.1919 16.3547C62.1919 13.7774 62.1919 11.2 62.1919 8.62272C62.1919 6.30205 62.1919 3.98674 62.1919 1.67143C62.1919 -0.0503556 62.4273 0.115431 60.6774 0.126125H60.3778C59.741 0.126125 59.6285 0.259793 59.6285 0.917492C59.6285 2.69275 59.6286 4.47334 59.666 6.26464C59.666 6.79935 59.4466 6.98114 58.9542 6.98114C56.8136 6.98114 54.673 6.98114 52.5324 6.98114C51.9973 6.98114 51.8047 6.75656 51.8154 6.2165C51.8422 4.69791 51.8154 3.17934 51.8154 1.66075C51.8154 0.142164 51.8154 0.16888 50.3491 0.136797C49.2788 0.136797 49.2788 0.136797 49.2788 1.20623C49.2788 5.92241 49.2788 10.6368 49.2788 15.3494C49.3002 17.4241 49.1022 17.0498 51.0341 17.0766Z" fill="white"></path><path d="M13.3007 48.0306C11.8879 47.9824 10.4643 47.9985 9.04619 47.9664C8.67694 47.9664 8.51104 48.1161 8.51104 48.4477C8.51104 48.9236 8.51114 49.4048 8.48439 49.8807C8.45763 50.3566 8.68234 50.5063 9.0944 50.5063C9.62955 50.5063 10.1647 50.4635 10.6999 50.5063C10.8872 50.5063 11.1922 50.7362 11.235 50.8913C11.3741 51.9607 10.2985 53.6504 9.26033 54.0087C6.67555 54.907 4.21379 54.0087 3.30404 51.1854C2.76791 49.3965 2.70164 47.4998 3.11146 45.6778C3.29473 44.6222 3.83493 43.6615 4.64191 42.9561C6.29018 41.5873 9.2656 41.491 10.6516 43.5711C10.6908 43.6403 10.7449 43.6999 10.81 43.7456C10.8751 43.7913 10.9495 43.8219 11.0279 43.8352C11.1063 43.8485 11.1868 43.8442 11.2634 43.8226C11.3399 43.8009 11.4106 43.7625 11.4704 43.7101C11.8611 43.4374 12.2732 43.1754 12.6852 42.9561C12.7734 42.9271 12.8525 42.8756 12.9148 42.8067C12.977 42.7378 13.0204 42.654 13.0404 42.5633C13.0603 42.4727 13.0563 42.3784 13.0287 42.2898C13.0012 42.2011 12.9511 42.1212 12.8833 42.0578C12.6543 41.755 12.4057 41.4674 12.1394 41.1969C10.8283 39.8227 9.14789 39.411 7.32302 39.4377C4.34223 39.4805 2.46919 40.9724 1.28651 43.2449C0.55889 44.9058 0.215737 46.7092 0.28245 48.521C0.349162 50.3328 0.824136 52.1063 1.67193 53.7092C2.53353 55.0835 3.67328 56.1796 5.30014 56.5272C6.27964 56.6899 7.27215 56.7616 8.26489 56.7411C10.352 56.7732 11.7916 55.6717 12.8619 54.0034C13.9322 52.335 13.868 50.3833 13.8252 48.4851C13.8252 48.33 13.4934 48.0413 13.3007 48.0306Z" fill="white"></path><path d="M60.4528 39.7213C59.9712 39.7213 59.4949 39.7213 59.0133 39.6893C58.5317 39.6572 58.2694 39.9032 58.2747 40.4432C58.2747 42.0474 58.2747 43.6515 58.2747 45.2984C58.2747 46.817 58.2747 48.3356 58.2747 49.8542C58.327 50.8783 58.0878 51.8962 57.5845 52.7898C56.6319 54.2977 54.9086 54.6292 53.2229 54.1586C52.609 53.9587 52.0563 53.6053 51.6175 53.132C50.7666 52.239 50.5472 51.052 50.5472 49.8595C50.5472 48.1217 50.5472 46.3839 50.5472 44.6407C50.5472 43.2237 50.5472 41.8067 50.5472 40.363C50.5472 39.8283 50.3545 39.6304 49.8407 39.6625C49.4447 39.6625 49.0434 39.6625 48.642 39.6625C48.1604 39.6625 47.9677 39.8604 47.9731 40.347C47.9731 43.3841 47.9731 46.4213 47.9731 49.4371C47.9275 50.8176 48.1699 52.1924 48.6849 53.4742C49.4448 55.2227 51.2054 56.6825 53.2497 56.6825C54.0484 56.7226 54.8485 56.7226 55.6472 56.6825C56.3552 56.6358 57.0458 56.4425 57.675 56.1148C58.3043 55.7871 58.8585 55.3321 59.3023 54.7789C60.4957 53.3084 60.8167 51.5706 60.8542 49.7793C60.9291 46.571 60.9024 43.3627 60.9238 40.1919C60.9345 39.8817 60.8007 39.732 60.4528 39.7213Z" fill="white"></path><path d="M70.9899 39.6895C68.9938 39.6895 66.9923 39.6895 64.9908 39.6895C64.2684 39.6895 64.1508 39.8018 64.1508 40.5129V48.1861V52.0199C64.1508 53.3193 64.1508 54.6187 64.1508 55.918C64.1508 56.4153 64.3058 56.672 64.841 56.6452C65.1781 56.6452 65.5154 56.6452 65.8579 56.6452C66.5696 56.6452 66.6552 56.565 66.6552 55.8485C66.6552 54.2711 66.6552 52.6937 66.6552 51.1163C66.6552 50.3303 66.6552 50.3249 67.4687 50.3249C68.8279 50.3249 70.1925 50.3731 71.5464 50.3249C74.4095 50.1806 76.609 48.5229 76.6839 45.304C76.7267 43.6998 76.3949 42.224 75.1426 41.0743C73.8904 39.9247 72.515 39.7001 70.9899 39.6895ZM73.2215 47.2664C72.8556 47.6032 72.3855 47.8051 71.889 47.8385C70.3157 47.9187 68.7369 47.892 67.1636 47.908C66.7676 47.908 66.6552 47.6941 66.6606 47.3358C66.6606 46.5552 66.6606 45.7798 66.6606 44.9991C66.6606 44.2185 66.6606 43.4859 66.6606 42.7266C66.6606 42.2667 66.8532 42.0796 67.3081 42.085C68.6246 42.085 69.941 42.085 71.2574 42.1117C72.5739 42.1385 73.5211 42.5876 73.9332 43.887C74.1562 44.4584 74.2076 45.0824 74.0812 45.6826C73.9548 46.2828 73.6561 46.8332 73.2215 47.2664Z" fill="white"></path><path d="M65.9862 17.0866H76.063C76.4751 17.0866 76.641 16.8887 76.641 16.4984C76.641 16.108 76.641 15.7819 76.641 15.429C76.641 14.6055 76.5929 14.5627 75.7474 14.568C73.3659 14.568 70.9898 14.568 68.6084 14.568C68.0732 14.568 67.9073 14.3809 67.918 13.8623C67.918 12.5629 67.918 11.2635 67.918 9.96951C67.918 9.46688 68.0518 9.23697 68.5977 9.24766C69.775 9.24766 70.9524 9.24766 72.1351 9.24766C72.5846 9.24766 72.804 9.10862 72.7772 8.63273C72.7478 8.23401 72.7478 7.83368 72.7772 7.43497C72.8308 6.90026 72.5739 6.77193 72.1083 6.77728C70.9898 6.77728 69.8714 6.77728 68.7529 6.77728C67.9716 6.77728 67.9341 6.7345 67.9341 5.97521C67.9341 5.09828 67.9341 4.21597 67.9341 3.33904C67.9073 2.76155 68.1374 2.55838 68.7047 2.56373C70.6419 2.56373 72.5792 2.56373 74.5218 2.56373C76.3092 2.56373 76.2986 2.5637 76.3093 0.767061C76.3093 0.280471 76.1647 0.0826488 75.667 0.087996C72.4561 0.087996 69.2577 0.087996 66.0718 0.087996C65.5366 0.087996 65.3441 0.30722 65.3494 0.847282C65.3494 3.42461 65.3494 6.00194 65.3494 8.57927C65.3494 11.1726 65.3494 13.7713 65.3494 16.3647C65.3173 16.8887 65.5153 17.0866 65.9862 17.0866Z" fill="white"></path><path d="M60.4795 27.9628C58.8741 27.2623 57.2365 26.749 55.6096 26.1555C54.4162 25.717 53.8972 25.086 53.9507 24.0166C53.9989 23.1343 54.6946 22.4125 55.8237 22.2093C56.548 22.0536 57.2974 22.0562 58.0207 22.2168C58.7439 22.3773 59.4237 22.6922 60.0139 23.1397L60.4367 23.4819C60.6561 23.6583 60.8167 23.669 61.0307 23.4231C61.3679 23.0274 61.7639 22.6905 62.1385 22.3536C62.4329 22.0702 62.4114 21.8189 62.0903 21.5569C60.6401 20.3859 59.056 19.5838 57.0706 19.6854C56.8083 19.6854 56.4819 19.6854 56.1662 19.6854C54.8785 19.7495 53.6529 20.2579 52.6984 21.1238C52.1699 21.6469 51.7772 22.2909 51.5543 23C51.3314 23.7092 51.2851 24.462 51.4195 25.193C51.4869 25.8938 51.7541 26.5605 52.1895 27.1141C52.6249 27.6676 53.2102 28.0846 53.8757 28.3157C55.3153 28.8986 56.8297 29.3103 58.2693 29.8878C58.9336 30.1483 59.5421 30.533 60.0621 31.0214C60.3091 31.305 60.4635 31.6571 60.5046 32.0308C60.5457 32.4044 60.4716 32.7817 60.2922 33.1121C60.1002 33.5234 59.7994 33.8744 59.422 34.127C59.0447 34.3796 58.6053 34.5242 58.1516 34.5452C57.2315 34.6929 56.29 34.6296 55.3981 34.36C54.5062 34.0904 53.6873 33.6216 53.0035 32.9891C52.9533 32.9276 52.8901 32.8781 52.8184 32.844C52.7466 32.81 52.6681 32.7923 52.5887 32.7923C52.5093 32.7923 52.4308 32.81 52.3591 32.844C52.2874 32.8781 52.2242 32.9276 52.174 32.9891C51.7833 33.3634 51.3713 33.711 51.0127 34.1174C50.9164 34.2243 50.9111 34.5933 51.0127 34.6521C51.9493 35.3312 52.8268 36.1654 53.8757 36.5718C55.6036 37.2425 57.5035 37.3307 59.2861 36.8231C60.8434 36.4006 62.101 35.6146 62.7111 34.0319C63.6155 31.6096 62.9466 29.0643 60.4795 27.9628Z" fill="white"></path><path d="M17.0627 36.8449C17.5015 36.8449 17.9458 36.8449 18.3847 36.8449C18.8235 36.8449 18.9732 36.7113 18.9679 36.2514C18.9679 34.1927 18.9679 32.1341 18.9679 30.0755C18.9679 29.3804 19.0481 29.2894 19.7652 29.2894C20.9212 29.2894 22.0807 29.2894 23.2437 29.2894C23.6665 29.2894 23.8753 29.145 23.8432 28.6905C23.8084 28.292 23.8084 27.8913 23.8432 27.4928C23.8967 26.9581 23.6772 26.7816 23.1582 26.7923C21.9808 26.7923 20.8034 26.7923 19.6207 26.7923C19.1338 26.7923 18.9358 26.6212 18.9572 26.1239C18.9946 25.3219 18.9572 24.5198 18.9572 23.7231C18.9572 22.3221 18.6521 22.397 20.3058 22.397C22.4035 22.397 24.5067 22.397 26.6045 22.397C27.1396 22.397 27.3805 22.1991 27.3323 21.643C27.3062 21.287 27.3062 20.9296 27.3323 20.5736C27.3591 20.0977 27.1665 19.8838 26.6688 19.8838C23.4579 19.8838 20.238 19.8838 17.0093 19.8838C16.5383 19.8838 16.3885 20.0923 16.3885 20.5415C16.3885 23.1402 16.3885 25.7389 16.3885 28.3323C16.3885 30.9524 16.3885 33.5671 16.3885 36.1872C16.4207 36.6738 16.6025 36.8663 17.0627 36.8449Z" fill="white"></path><path d="M34.9207 2.62789C36.1194 2.62789 37.3181 2.62789 38.5169 2.62789C39.052 2.62789 39.2126 2.83106 39.2072 3.33904C39.2072 5.51533 39.2072 7.69163 39.2072 9.86792C39.2072 12.0442 39.2072 14.2579 39.2072 16.4556C39.2072 16.9101 39.341 17.1294 39.8226 17.0973C40.1812 17.0973 40.5451 17.0973 40.8929 17.0973C41.6849 17.0973 41.7331 17.0385 41.7331 16.2471C41.7331 11.9694 41.7331 7.69163 41.7331 3.41391C41.7331 2.71343 41.8402 2.61719 42.5305 2.61719C43.6918 2.61719 44.8477 2.61719 46.009 2.61719C46.5441 2.61719 46.7154 2.38192 46.6833 1.88463C46.6647 1.5284 46.6647 1.17144 46.6833 0.815202C46.6833 0.344653 46.5174 0.109375 46.0251 0.109375C42.2897 0.109375 38.5437 0.109375 34.7869 0.109375C34.3695 0.109375 34.2196 0.296512 34.2518 0.697548C34.2812 1.11589 34.2812 1.5358 34.2518 1.95415C34.2143 2.48351 34.4391 2.63324 34.9207 2.62789Z" fill="white"></path><path d="M64.8893 22.4131C66.0077 22.4131 67.1262 22.4131 68.2447 22.4131C69.1223 22.4131 69.1651 22.4559 69.1651 23.3061C69.1651 27.5838 69.1651 31.8775 69.1651 36.1873C69.1651 36.6418 69.3417 36.8558 69.8019 36.8397C70.2621 36.8237 70.5672 36.8397 70.9418 36.8397C71.477 36.8771 71.7178 36.6846 71.7071 36.0911C71.675 33.9522 71.7071 31.8134 71.7071 29.6745C71.7071 27.4982 71.7071 25.3219 71.7071 23.1456C71.7071 22.5521 71.9211 22.3863 72.483 22.4077C73.4837 22.4451 74.4845 22.4077 75.4799 22.4077C76.6626 22.4077 76.6626 22.4077 76.6679 21.2421C76.6679 21.0603 76.6679 20.8838 76.6679 20.7073C76.6679 19.9801 76.6091 19.9053 75.9027 19.9053H71.5251C69.347 19.9053 67.1636 19.9053 64.9855 19.9053C64.4504 19.9053 64.2096 20.0871 64.2471 20.6378C64.2792 21.0168 64.2792 21.3978 64.2471 21.7768C64.1668 22.2794 64.4237 22.4184 64.8893 22.4131Z" fill="white"></path><path d="M32.4537 36.0056V28.402C32.4537 25.7873 32.4537 23.1725 32.4537 20.5577C32.4537 20.0658 32.2771 19.8573 31.7794 19.9C31.4408 19.9214 31.1013 19.9214 30.7627 19.9C29.9813 19.8626 29.9011 19.9001 29.9011 20.7182C29.9011 25.5306 29.9011 30.3003 29.9011 35.0859C29.9011 37.059 29.6067 36.8184 31.6563 36.8291C32.4162 36.8398 32.4537 36.7863 32.4537 36.0056Z" fill="white"></path></g><defs><clipPath id="clip0_1117_24191"><rect width="136.083" height="56.8348" fill="white" transform="translate(0.259033 0.0830078)"></rect></clipPath></defs></svg>