<svg xmlns="http://www.w3.org/2000/svg" width="130" height="29" viewBox="0 0 130 29" fill="none"><g clip-path="url(#clip0_1114_24176)"><path d="M36.294 5.84082C37.7061 5.84082 39.1183 5.84082 40.5732 5.84082C42.1227 9.73172 43.6435 13.6311 45.1041 17.5571C45.5026 16.9522 45.7611 16.4716 46.0264 15.8106C46.1054 15.615 46.1843 15.4195 46.2657 15.2181C46.3496 15.0079 46.4335 14.7978 46.52 14.5813C46.6512 14.2558 46.6512 14.2558 46.7851 13.9237C47.0646 13.2302 47.343 12.5363 47.6213 11.8422C47.8997 11.1492 48.1783 10.4562 48.4574 9.76344C48.631 9.33246 48.8041 8.9013 48.9768 8.46995C49.0558 8.27362 49.1348 8.07729 49.2161 7.87501C49.285 7.70311 49.3539 7.53122 49.4249 7.35411C49.6431 6.84064 49.8914 6.34071 50.1384 5.84082C51.4675 5.84082 52.7966 5.84082 54.1659 5.84082C54.1659 11.4723 54.1659 17.1037 54.1659 22.9058C53.1691 22.9058 52.1723 22.9058 51.1453 22.9058C51.0622 19.0395 50.9792 15.1731 50.8936 11.1896C49.779 14.0924 49.779 14.0924 48.6648 16.9953C47.9067 18.9694 47.1455 20.9417 46.3627 22.9058C45.6151 22.9058 44.8675 22.9058 44.0972 22.9058C42.9575 20.4705 41.9797 17.975 40.998 15.4717C40.4425 14.0586 39.8869 12.6455 39.3146 11.1896C39.2315 15.0559 39.1485 18.9223 39.0629 22.9058C38.1492 22.9058 37.2354 22.9058 36.294 22.9058C36.294 17.2744 36.294 11.6429 36.294 5.84082Z" fill="white"></path><path d="M14.8981 15.0098C19.3006 15.0098 23.7031 15.0098 28.2391 15.0098C28.2391 19.4645 28.2391 23.9192 28.2391 28.5089C23.8365 28.5089 19.434 28.5089 14.8981 28.5089C14.8981 24.0542 14.8981 19.5995 14.8981 15.0098Z" fill="white"></path><path d="M0.550232 15.0098C4.86969 15.0098 9.18915 15.0098 13.6395 15.0098C13.6395 19.4645 13.6395 23.9192 13.6395 28.5089C9.32004 28.5089 5.00058 28.5089 0.550232 28.5089C0.550232 24.0542 0.550232 19.5995 0.550232 15.0098Z" fill="white"></path><path d="M14.8981 0.492188C19.3006 0.492188 23.7031 0.492188 28.2391 0.492188C28.2391 4.86287 28.2391 9.23354 28.2391 13.7367C23.8365 13.7367 19.434 13.7367 14.8981 13.7367C14.8981 9.36599 14.8981 4.99531 14.8981 0.492188Z" fill="white"></path><path d="M0.550232 0.492188C4.86969 0.492188 9.18915 0.492188 13.6395 0.492188C13.6395 4.86287 13.6395 9.23354 13.6395 13.7367C9.32004 13.7367 5.00058 13.7367 0.550232 13.7367C0.550232 9.36599 0.550232 4.99531 0.550232 0.492188Z" fill="white"></path><path d="M121.154 4.80676C121.477 4.80906 121.799 4.81136 122.131 4.81372C122.38 4.81668 122.628 4.81963 122.885 4.82268C122.885 5.74724 122.885 6.67181 122.885 7.62439C122.521 7.61389 122.158 7.60338 121.783 7.59256C121.176 7.56262 121.176 7.56262 120.619 7.62439C119.991 8.25989 120.025 8.55999 119.958 9.43914C119.927 9.84889 119.896 10.2586 119.864 10.6808C121.11 10.6808 122.356 10.6808 123.64 10.6808C123.64 9.75625 123.64 8.83168 123.64 7.8791C125.811 7.11499 125.811 7.11499 126.66 7.11499C126.66 8.29171 126.66 9.46843 126.66 10.6808C127.574 10.6808 128.488 10.6808 129.429 10.6808C129.429 11.5213 129.429 12.3618 129.429 13.2278C128.515 13.2278 127.602 13.2278 126.66 13.2278C126.696 14.2255 126.733 15.223 126.77 16.2206C126.78 16.5036 126.79 16.7866 126.8 17.0782C126.811 17.3507 126.821 17.6232 126.832 17.904C126.846 18.2801 126.846 18.2801 126.86 18.6639C126.898 19.4054 126.898 19.4054 127.164 20.3595C128.285 20.2334 128.285 20.2334 129.429 20.1048C129.429 21.0293 129.429 21.9539 129.429 22.9065C127.581 23.2805 126.335 23.3172 124.647 22.3971C123.597 21.3002 123.608 20.1713 123.615 18.6999C123.616 18.3815 123.617 18.063 123.618 17.7349C123.621 17.2374 123.621 17.2374 123.624 16.73C123.625 16.3944 123.626 16.0589 123.627 15.7132C123.63 14.8847 123.635 14.0563 123.64 13.2278C122.394 13.2278 121.148 13.2278 119.864 13.2278C119.864 16.4218 119.864 19.6157 119.864 22.9065C118.784 22.9065 117.704 22.9065 116.592 22.9065C116.592 19.7125 116.592 16.5186 116.592 13.2278C116.01 13.2278 115.429 13.2278 114.83 13.2278C114.83 12.3873 114.83 11.5468 114.83 10.6808C115.411 10.6808 115.993 10.6808 116.592 10.6808C116.568 10.2474 116.568 10.2474 116.544 9.80528C116.552 8.41741 116.777 6.99759 117.715 5.93202C118.914 4.90342 119.609 4.79255 121.154 4.80676Z" fill="white"></path><path d="M111.699 10.8235C113.215 11.7692 114.125 13.0225 114.578 14.7555C114.766 17.0269 114.865 19.2377 113.451 21.1041C112.231 22.4656 111.065 23.069 109.262 23.2313C107.378 23.2863 105.745 23.2537 104.274 21.9727C102.892 20.5132 102.237 18.9529 102.149 16.9364C102.229 15.0168 102.719 13.22 104.064 11.8195C106.097 10.1071 109.269 9.73113 111.699 10.8235ZM106.082 14.2461C105.309 15.498 105.371 16.8943 105.516 18.3213C106.05 19.4408 106.621 20.1699 107.782 20.6136C108.767 20.6899 109.667 20.663 110.464 20.0256C111.551 18.7429 111.644 17.5977 111.629 15.9783C111.52 14.8976 111.202 14.3429 110.55 13.482C109.078 12.3006 107.214 12.937 106.082 14.2461Z" fill="white"></path><path d="M89.6828 11.0887C91.0817 12.1264 91.8874 13.5448 92.1754 15.2644C92.361 17.5069 92.1363 19.492 90.7753 21.3295C89.4483 22.7481 87.7697 23.2115 85.8825 23.2875C84.2539 23.2239 82.722 22.8731 81.446 21.7961C79.8474 20.0005 79.7027 18.2789 79.7528 15.945C79.9342 14.028 80.6337 12.68 82.1068 11.4439C84.2379 9.97124 87.3984 9.87053 89.6828 11.0887ZM83.6171 13.9909C82.8223 15.26 82.7626 16.5206 82.9691 17.9806C83.2432 19.1088 83.7219 19.8461 84.6869 20.4699C85.6458 20.6684 86.4544 20.6526 87.3928 20.3585C88.5303 19.5077 88.9241 18.7026 89.1548 17.3021C89.1525 15.96 89.0141 14.8004 88.148 13.7362C87.4175 13.1408 86.9591 12.9811 86.0241 12.8607C84.9239 12.9974 84.4376 13.2361 83.6171 13.9909Z" fill="white"></path><path d="M100.734 10.6808C100.734 11.6895 100.734 12.6981 100.734 13.7373C100.054 13.53 99.3736 13.3227 98.6935 13.1154C97.9328 12.9669 97.4465 13.0211 96.7063 13.2279C96.5119 13.6957 96.5119 13.6957 96.4546 14.2467C97.2012 15.2389 98.4079 15.607 99.4978 16.1072C100.307 16.5843 100.724 17.0245 101.237 17.8125C101.604 19.3453 101.535 20.2273 100.734 21.633C99.5321 22.8828 98.1472 23.1809 96.4703 23.2408C95.2334 23.2197 94.3074 22.9031 93.1823 22.3971C93.1823 21.3885 93.1823 20.3799 93.1823 19.3407C93.5613 19.5088 93.9403 19.6769 94.3307 19.8501C95.4561 20.3072 96.2593 20.4862 97.4615 20.3595C97.7107 20.2334 97.7107 20.2334 97.9649 20.1048C97.9735 19.4998 97.9735 19.4998 97.7132 18.8313C97.133 18.4282 96.6063 18.1108 95.9826 17.7966C94.5938 17.0797 93.6916 16.5568 93.1823 15.0108C93.0826 13.6738 93.2161 12.8322 93.9374 11.6996C95.736 9.82781 98.4202 9.90048 100.734 10.6808Z" fill="white"></path><path d="M67.7743 10.3614C68.0732 10.3601 68.372 10.3588 68.6799 10.3574C69.5206 10.4251 69.5206 10.4251 70.7792 10.9345C70.7792 11.9431 70.7792 12.9517 70.7792 13.9909C70.3509 13.7939 70.3509 13.7939 69.9139 13.5929C68.723 13.1443 67.7223 13.1369 66.5 13.4815C65.6735 13.962 65.3354 14.3188 64.8953 15.1689C64.6235 16.6542 64.6691 18.0193 65.4302 19.3396C66.2598 20.0858 66.8969 20.3199 67.9946 20.438C68.8949 20.3451 69.4828 20.0222 70.2758 19.5943C70.525 19.5943 70.7742 19.5943 71.0309 19.5943C71.0309 20.5189 71.0309 21.4435 71.0309 22.3961C68.9925 23.2076 67.022 23.5793 64.8953 22.8418C63.2992 22.1214 62.4416 21.1863 61.7056 19.5884C61.0524 17.5242 61.22 15.2369 62.1205 13.2755C63.4752 11.1276 65.3067 10.3505 67.7743 10.3614Z" fill="white"></path><path d="M79.5893 10.4255C79.841 10.6802 79.841 10.6802 79.8656 11.3737C79.8626 11.6544 79.8597 11.9351 79.8567 12.2243C79.8544 12.5057 79.8522 12.7871 79.8498 13.077C79.8469 13.2946 79.844 13.5123 79.841 13.7366C79.6176 13.6913 79.6176 13.6913 79.3897 13.6451C78.0517 13.4151 78.0517 13.4151 76.8204 13.9276C75.9734 14.8918 76.0219 15.765 75.9856 17.0109C75.9803 17.1794 75.9751 17.348 75.9697 17.5216C75.9533 18.0587 75.9384 18.5959 75.9236 19.1331C75.9128 19.4977 75.9018 19.8624 75.8907 20.227C75.8638 21.1199 75.8383 22.0129 75.8135 22.9059C74.8167 22.9059 73.8199 22.9059 72.7929 22.9059C72.7929 18.8714 72.7929 14.8369 72.7929 10.6802C73.7897 10.6802 74.7865 10.6802 75.8135 10.6802C75.8966 10.9323 75.9796 11.1845 76.0652 11.4443C76.2158 11.3235 76.3663 11.2026 76.5215 11.0782C77.5236 10.3538 78.3891 10.3805 79.5893 10.4255Z" fill="white"></path><path d="M56.683 10.6797C57.6798 10.6797 58.6766 10.6797 59.7036 10.6797C59.7036 14.7142 59.7036 18.7486 59.7036 22.9054C58.7068 22.9054 57.71 22.9054 56.683 22.9054C56.683 18.8709 56.683 14.8364 56.683 10.6797Z" fill="white"></path><path d="M58.9485 5.58664C59.5464 5.85726 59.5464 5.85726 59.9554 6.35075C60.0636 7.22701 60.1304 7.83856 59.6722 8.61122C58.9861 9.02776 58.4914 9.13624 57.6899 9.15246C56.9663 8.75449 56.9663 8.75449 56.4314 8.13366C56.2572 7.19384 56.3056 6.7915 56.8404 6.00053C57.6131 5.46556 58.0286 5.4509 58.9485 5.58664Z" fill="white"></path></g><defs><clipPath id="clip0_1114_24176"><rect width="128.879" height="28.0172" fill="white" transform="translate(0.550232 0.492188)"></rect></clipPath></defs></svg>