<svg xmlns="http://www.w3.org/2000/svg" width="105" height="53" viewBox="0 0 105 53" fill="none"><g clip-path="url(#clip0_1107_24055)"><path d="M44.2571 17.7422V34.68H39.6176V25.1796L36.5185 29.7579H34.0899L30.6828 25.1796V34.68H26.4419V17.7422H30.719L35.6123 24.3834L39.9981 17.7422H44.2571ZM45.5983 21.5785V17.7422H61.438V21.5785H55.8923V34.68H51.1621V21.5785H45.5983ZM78.8908 17.7422V34.68H74.9943L67.02 24.9987V34.68H62.7792V17.7422H67.0019L74.6318 27.0797V17.7422H78.8908Z" fill="white"></path><path d="M52.5032 52.3776C38.802 52.3776 25.8801 49.8261 16.1297 45.1754C5.92628 40.3076 0.308044 33.6844 0.308044 26.5003C0.308044 19.3162 5.92628 12.6931 16.1297 7.82525C25.8801 3.17458 38.802 0.623047 52.5032 0.623047C66.2045 0.623047 79.1264 3.17458 88.8768 7.82525C99.0802 12.6931 104.698 19.3162 104.698 26.5003C104.698 33.6844 99.0802 40.3076 88.8768 45.1754C79.1264 49.8261 66.2045 52.3776 52.5032 52.3776ZM52.5032 4.4413C39.3457 4.4413 27.0218 6.86617 17.7789 11.2816C8.98912 15.4799 4.13207 20.8906 4.13207 26.5184C4.13207 32.1463 8.971 37.557 17.7789 41.7372C27.0218 46.1526 39.3638 48.5775 52.5032 48.5775C65.6426 48.5775 77.9846 46.1526 87.2275 41.7372C96.0173 37.557 100.874 32.1282 100.874 26.5184C100.874 20.9087 96.0355 15.4799 87.2275 11.2997C77.9846 6.86617 65.6608 4.4413 52.5032 4.4413Z" fill="white"></path></g><defs><clipPath id="clip0_1107_24055"><rect width="104.864" height="52.0319" fill="white" transform="translate(0.071106 0.484375)"></rect></clipPath></defs></svg>