<svg xmlns="http://www.w3.org/2000/svg" width="170" height="71" viewBox="0 0 170 71" fill="none"><g clip-path="url(#clip0_1120_24209)"><mask id="mask0_1120_24209" style="mask-type:luminance" maskUnits="userSpaceOnUse" x="0" y="0" width="170" height="71"><path d="M169.076 0.678711H0.172363V70.3214H169.076V0.678711Z" fill="white"></path></mask><g mask="url(#mask0_1120_24209)"><mask id="mask1_1120_24209" style="mask-type:luminance" maskUnits="userSpaceOnUse" x="-70" y="-43" width="310" height="157"><path d="M-69.9385 -42.0059H239.52V113.218H-69.9385V-42.0059Z" fill="white"></path></mask><g mask="url(#mask1_1120_24209)"><path d="M6.12775 46.7746V47.0442C6.12775 48.3149 6.94085 48.7152 7.7148 48.7152C8.67086 48.7152 9.40657 48.3149 9.40657 47.2006C9.40657 45.1293 5.15712 45.3625 5.15712 42.5547C5.15712 40.8977 6.35174 40.0166 7.93788 40.0166C9.67017 40.0166 10.6399 40.8451 10.5611 42.7488H9.30186C9.31506 41.7262 8.98727 41.0532 7.84501 41.0532C7.65453 41.0333 7.46195 41.0545 7.28063 41.1155C7.09931 41.1764 6.9336 41.2756 6.79499 41.406C6.65638 41.5365 6.5482 41.6952 6.47795 41.871C6.4077 42.0469 6.37706 42.2357 6.38816 42.4244C6.38816 44.4818 10.6376 44.1839 10.6376 47.1503C10.6376 49.1169 9.25952 49.7522 7.69978 49.7522C4.90627 49.7783 4.90627 47.667 4.93222 46.7751L6.12775 46.7746Z" fill="white"></path><path d="M17.473 40.21V41.2434H14.9799V49.5556H13.7744V41.2434H11.2814V40.21H17.473Z" fill="white"></path><path d="M20.2929 41.3103H20.2674L18.7855 46.2927H21.8144L20.2929 41.3103ZM19.5581 40.21H21.0928L24.1759 49.5556H22.8251L22.1431 47.3292H18.4828L17.7744 49.5578H16.557L19.5581 40.21Z" fill="white"></path><path d="M29.4478 40.21V41.2434H26.9557V49.5556H25.7492V41.2434H23.2571V40.21H29.4478Z" fill="white"></path><path d="M31.731 49.5556H30.5245V40.21H31.731V49.5556Z" fill="white"></path><path d="M34.6169 46.7746V47.0442C34.6169 48.3149 35.43 48.7152 36.2039 48.7152C37.16 48.7152 37.8957 48.3149 37.8957 47.2006C37.8957 45.1293 33.6463 45.3625 33.6463 42.5547C33.6463 40.8977 34.8409 40.0166 36.427 40.0166C38.1593 40.0166 39.129 40.8451 39.0503 42.7488H37.791C37.8042 41.7262 37.4764 41.0532 36.3341 41.0532C36.1437 41.0333 35.9511 41.0545 35.7698 41.1155C35.5884 41.1764 35.4227 41.2756 35.2841 41.406C35.1455 41.5365 35.0373 41.6952 34.9671 41.871C34.8968 42.0469 34.8662 42.2357 34.8773 42.4244C34.8773 44.4818 39.1267 44.1839 39.1267 47.1503C39.1267 49.1169 37.7487 49.7522 36.1889 49.7522C33.3954 49.7783 33.3954 47.667 33.4214 46.7751L34.6169 46.7746Z" fill="white"></path><path d="M45.9571 40.21V41.2434H43.4649V49.5556H42.2585V41.2434H39.7664V40.21H45.9571Z" fill="white"></path><path d="M48.247 49.5556H47.0415V40.21H48.247V49.5556Z" fill="white"></path><path d="M54.3718 42.7875C54.4323 42.317 54.336 41.8399 54.0973 41.4283C53.8061 41.1683 53.4274 41.0241 53.0347 41.0239C52.7505 40.9957 52.4641 41.0493 52.2102 41.1784C51.9563 41.3075 51.7458 41.5066 51.6042 41.7514C51.5651 41.8547 51.3279 42.0879 51.3279 43.6919V46.191C51.3279 48.4825 52.0895 48.752 53.021 48.752C53.3884 48.752 54.5029 48.6217 54.5175 46.7976H55.7622C55.8154 49.75 53.703 49.75 53.0866 49.75C51.9061 49.75 50.0973 49.6722 50.0973 46.0468V43.408C50.0973 40.7674 51.2778 40.0166 53.1394 40.0166C55.016 40.0166 55.7376 40.9754 55.6183 42.7875H54.3718Z" fill="white"></path><path d="M58.0945 46.7746V47.0442C58.0945 48.3149 58.9076 48.7152 59.6806 48.7152C60.6367 48.7152 61.3738 48.3149 61.3738 47.2006C61.3738 45.1293 57.123 45.3625 57.123 42.5547C57.123 40.8977 58.3176 40.0166 59.9037 40.0166C61.636 40.0166 62.6066 40.8451 62.5279 42.7488H61.2686C61.2809 41.7262 60.954 41.0532 59.8118 41.0532C59.6213 41.0333 59.4287 41.0545 59.2474 41.1155C59.0661 41.1764 58.9004 41.2756 58.7617 41.406C58.6231 41.5365 58.515 41.6952 58.4447 41.871C58.3745 42.0469 58.3438 42.2357 58.3549 42.4244C58.3549 44.4818 62.6044 44.1839 62.6044 47.1503C62.6044 49.1169 61.2263 49.7522 59.6665 49.7522C56.873 49.7783 56.873 47.667 56.8981 46.7751L58.0945 46.7746Z" fill="white"></path><path d="M70.8778 42.7875C70.9394 42.317 70.843 41.8396 70.6033 41.4283C70.3123 41.168 69.9335 41.0238 69.5407 41.0239C69.2567 40.9955 68.9704 41.0492 68.7166 41.1783C68.4628 41.3074 68.2525 41.5065 68.1112 41.7514C68.072 41.8547 67.8349 42.0879 67.8349 43.6919V46.191C67.8349 48.4825 68.5956 48.752 69.528 48.752C69.8922 48.752 71.0099 48.6217 71.0231 46.7976H72.2691C72.3215 49.75 70.21 49.75 69.5935 49.75C68.413 49.75 66.6029 49.6722 66.6029 46.0468V43.408C66.6029 40.7674 67.7834 40.0166 69.6459 40.0166C71.5216 40.0166 72.2409 40.9754 72.1248 42.7875H70.8778Z" fill="white"></path><path d="M73.6724 49.5575V40.2119H78.5514V41.2453H74.8788V44.2485H78.2892V45.2819H74.8788V48.5169H78.6302V49.5535L73.6724 49.5575Z" fill="white"></path><path d="M86.4657 40.21V49.5556H84.8122L81.074 41.4527H81.049V49.5556H79.9723V40.21H81.6773L85.3649 48.2076H85.3913V40.21H86.4657Z" fill="white"></path><path d="M93.6389 40.21V41.2434H91.1468V49.5556H89.9404V41.2434H87.4482V40.21H93.6389Z" fill="white"></path><path d="M95.7372 44.2224H97.5473C98.4123 44.2224 98.8316 43.4855 98.8316 42.67C98.8316 41.996 98.4907 41.2452 97.5615 41.2452H95.7372V44.2224ZM95.7372 45.2589V49.5565H94.5289V40.2109H97.7968C99.4758 40.2109 100.066 41.376 100.066 42.541C100.102 43.0463 99.944 43.5464 99.6234 43.9419C99.3029 44.3374 98.8432 44.5994 98.3359 44.6757V44.7027C99.4244 44.8698 99.8178 45.2342 99.8838 47.1105C99.9208 47.9339 100.03 48.7524 100.212 49.557H98.9509C98.6099 48.91 98.6887 47.6919 98.5835 46.4491C98.5794 46.2746 98.5377 46.1029 98.4612 45.9455C98.3847 45.7881 98.2753 45.6485 98.14 45.5359C98.0048 45.4234 97.8469 45.3405 97.6767 45.2928C97.5066 45.245 97.3281 45.2335 97.1531 45.2589H95.7372Z" fill="white"></path><path d="M101.519 49.5575V40.2119H106.398V41.2453H102.724V44.2485H106.135V45.2819H102.724V48.5169H106.476V49.5535L101.519 49.5575Z" fill="white"></path><path d="M8.1396 27.3333C8.40075 27.3359 8.66115 27.3616 8.91764 27.4102C9.26056 27.481 9.59492 27.5875 9.91513 27.7278L10.3813 26.689C10.061 26.5364 9.72527 26.4172 9.37974 26.3336C9.0024 26.24 8.61471 26.1932 8.22564 26.1944C7.98597 26.197 7.74761 26.2297 7.51634 26.2919C7.264 26.3586 7.02725 26.4732 6.81933 26.6293C6.59637 26.8001 6.41719 27.0201 6.29623 27.2718C6.15513 27.583 6.08726 27.9217 6.09773 28.2625C6.09766 28.5091 6.1312 28.7545 6.19743 28.9922C6.27528 29.2541 6.3985 29.5006 6.56165 29.721H4.98779V30.8604H10.1364V29.7214H9.02736C8.82436 29.7194 8.62266 29.6892 8.42823 29.6316C8.22148 29.574 8.02623 29.4819 7.85096 29.3593C7.67747 29.2395 7.52996 29.0868 7.41709 28.91C7.30266 28.718 7.24539 28.4981 7.25183 28.2755C7.23881 28.1431 7.25597 28.0094 7.30205 27.8843C7.34813 27.7592 7.42197 27.6459 7.51816 27.5526C7.6918 27.4081 7.91246 27.3302 8.1396 27.3333Z" fill="white"></path><path d="M30.7052 29.7218H23.6468C23.7847 29.2918 23.952 28.8715 24.1476 28.4638C24.4385 27.867 24.834 27.3257 25.3158 26.8647C25.9331 26.2751 26.6447 25.7899 27.4218 25.4287C28.4577 24.9635 29.5711 24.6894 30.707 24.6199L30.7052 29.7218ZM47.5746 28.8017C47.4857 28.3634 47.3966 27.6478 47.3074 26.6549C47.2832 25.7342 46.9559 24.8464 46.375 24.1257C46.0851 23.8341 45.7348 23.6078 45.348 23.4623C44.9612 23.3167 44.5472 23.2553 44.1342 23.2824C43.6868 23.2776 43.2426 23.3556 42.8244 23.5124C42.4615 23.6458 42.1181 23.8261 41.8032 24.0484L42.5125 24.947C42.9818 24.6216 43.5373 24.4389 44.1105 24.4214C44.3341 24.4208 44.5572 24.4421 44.7765 24.4852C45.0052 24.5317 45.2187 24.6333 45.398 24.7808C45.6159 24.9689 45.7839 25.2068 45.8874 25.4736C46.0426 25.8809 46.1325 26.3096 46.1537 26.7443C46.1836 27.3568 46.2462 27.9674 46.3413 28.5734C46.3993 28.9713 46.5155 29.3587 46.6864 29.7236H31.8593V23.3911L31.2369 23.4131C30.2797 23.4404 29.3296 23.5839 28.4079 23.8404C27.6543 24.053 26.928 24.3508 26.2436 24.7278C25.6641 25.0473 25.1301 25.4414 24.6556 25.8996C24.2501 26.2939 23.8895 26.7308 23.5803 27.2026V25.0342H22.4248V29.7218H12.1044V19.3604H10.9503V30.8626H48.7283L48.7738 29.7672L48.1514 29.592C47.8558 29.5042 47.6638 29.2414 47.5755 28.8034" fill="white"></path><path d="M51.9702 33.927C51.8669 33.8716 51.7811 33.7891 51.7224 33.6885C51.6637 33.588 51.6343 33.4733 51.6374 33.3573C51.63 33.2739 51.6422 33.1899 51.6732 33.112C51.7042 33.034 51.753 32.9642 51.8159 32.908C51.949 32.808 52.1137 32.7577 52.2807 32.766C52.6032 32.775 52.9202 32.8495 53.2122 32.9848L53.4353 32.4591C53.2464 32.387 53.0537 32.3249 52.858 32.2731C52.6626 32.2218 52.4611 32.1959 52.2589 32.1963C51.9645 32.1965 51.6777 32.2885 51.4394 32.4591C51.3071 32.5626 51.2032 32.6971 51.1371 32.8504C51.071 33.0037 51.0449 33.1708 51.0611 33.3366C51.0626 33.5051 51.0961 33.6719 51.1599 33.8282C51.1904 33.9435 51.2562 34.0468 51.3483 34.1238H50.3276V34.6935H53.4571V34.1238H52.7906C52.5043 34.1332 52.2209 34.0649 51.9711 33.9266" fill="white"></path><path d="M53.0697 29.7218C53.3198 29.5178 53.5411 29.3243 53.7335 29.1413C53.9259 28.9583 54.1102 28.7648 54.2862 28.5608C54.4773 28.3379 54.6546 28.1039 54.817 27.8599C54.9946 27.5971 55.2004 27.2834 55.4376 26.9164C55.7796 27.472 56.0695 27.9941 56.3071 28.4826C56.5448 28.9712 56.7308 29.3838 56.8653 29.7205L53.0697 29.7218ZM57.738 28.8129C57.5462 28.3678 57.3139 27.8858 57.041 27.367C56.748 26.8145 56.4268 26.2771 56.0786 25.7567C56.5408 24.8327 56.9152 23.8684 57.1972 22.8762C57.4524 22.0183 57.5902 21.1305 57.6069 20.2365V19.3604H56.4519V20.214C56.4393 20.9255 56.3331 21.6323 56.1359 22.3168C55.9173 23.1174 55.6394 23.9012 55.3046 24.6617C54.8011 24.0782 54.3832 23.5925 54.0508 23.2046C53.7185 22.8167 53.4077 22.47 53.1184 22.1645C52.8298 21.8578 52.545 21.562 52.2639 21.2771C51.9829 20.9922 51.6499 20.66 51.2651 20.2805L50.4661 21.0893C50.7022 21.3382 51.0092 21.6527 51.3871 22.0328C51.7649 22.4129 52.1571 22.8218 52.5635 23.2594C52.969 23.6977 53.3647 24.1431 53.7508 24.5957C54.1369 25.0483 54.4625 25.4645 54.7278 25.8443C54.4309 26.3781 54.0962 26.8905 53.7262 27.3778C53.3935 27.8234 53.0158 28.2345 52.599 28.6049C52.2295 28.9359 51.8139 29.2129 51.3648 29.4275C50.9599 29.6208 50.5161 29.7219 50.0663 29.7232H49.8888V30.8608H58.4933L58.2056 30.0071C58.0866 29.6567 57.9309 29.2587 57.7385 28.8133" fill="white"></path><path d="M59.5272 30.8607H60.6822V19.3584H59.5272V30.8607Z" fill="white"></path><path d="M68.1841 22.2951C68.2819 22.2972 68.379 22.2788 68.4689 22.241C68.5589 22.2032 68.6397 22.1468 68.7058 22.0758C68.7743 22.0063 68.8282 21.9241 68.8644 21.834C68.9006 21.7438 68.9183 21.6475 68.9166 21.5506C68.9182 21.4536 68.9004 21.3572 68.8642 21.267C68.8281 21.1768 68.7742 21.0945 68.7058 21.0249C68.6397 20.9537 68.559 20.8972 68.469 20.8591C68.3791 20.821 68.282 20.8021 68.1841 20.8038C68.0849 20.8026 67.9864 20.8215 67.8948 20.8592C67.8032 20.8969 67.7204 20.9526 67.6515 21.0231C67.5799 21.0914 67.5232 21.1734 67.485 21.2641C67.4468 21.3548 67.4278 21.4523 67.4293 21.5506C67.4278 21.6485 67.4467 21.7458 67.4849 21.8362C67.5231 21.9267 67.5798 22.0084 67.6515 22.0763C67.7202 22.1469 67.803 22.2029 67.8947 22.2406C67.9863 22.2783 68.0848 22.297 68.1841 22.2955" fill="white"></path><path d="M84.7198 27.6623C84.7198 26.2605 84.3905 25.2236 83.7319 24.5518C83.3668 24.2043 82.9327 23.9352 82.457 23.7614C81.9813 23.5876 81.4743 23.513 80.968 23.5422C80.8337 23.5422 80.7085 23.5462 80.5905 23.553C80.4726 23.5597 80.3534 23.5718 80.2354 23.5858C80.4604 23.2325 80.7167 22.8996 81.0012 22.591C81.2788 22.2884 81.5753 22.0033 81.889 21.7373C82.1796 21.4912 82.4836 21.2608 82.7995 21.0472C83.103 20.8432 83.3727 20.6753 83.6085 20.5435V21.5513H84.7626V18.6807C84.1088 18.9724 83.4563 19.301 82.805 19.6664C82.1669 20.0238 81.5658 20.442 81.0103 20.9151C80.4699 21.3758 79.9866 21.8979 79.5703 22.4706C79.1467 23.057 78.8237 23.7082 78.6142 24.3981L78.3488 25.2967C78.9707 25.0855 79.4744 24.9301 79.8598 24.8303C80.2367 24.7334 80.6245 24.6838 81.0139 24.683C81.3619 24.6577 81.7114 24.7043 82.0401 24.8199C82.3688 24.9355 82.6695 25.1175 82.9229 25.3542C83.3517 25.8014 83.566 26.5678 83.5657 27.6533V29.7202H68.7618V24.1132H67.6077V31.3642C67.6077 31.7587 67.5918 32.1379 67.5622 32.5032C67.54 32.8386 67.4615 33.1681 67.33 33.4782C67.2097 33.7554 67.0138 33.9943 66.7641 34.1683C66.4592 34.3581 66.1021 34.4499 65.7421 34.4311V35.5701C66.3085 35.5984 66.8712 35.4653 67.3633 35.1869C67.7523 34.9419 68.067 34.5975 68.2738 34.1903C68.4862 33.764 68.6215 33.3043 68.6735 32.8321C68.7326 32.3449 68.763 31.8548 68.7646 31.3642V30.8605H84.7198V27.6623Z" fill="white"></path><path d="M105.08 29.6777C104.301 29.6908 103.529 29.5298 102.822 29.2068C102.285 28.922 102.017 28.3713 102.018 27.5547C102.009 27.1719 102.122 26.7959 102.341 26.4795C102.56 26.1711 102.833 25.904 103.147 25.691C103.462 25.4745 103.799 25.291 104.153 25.1433C104.454 25.0137 104.764 24.9037 105.08 24.8139V29.6777ZM104.831 23.6866C104.208 23.8354 103.609 24.0674 103.049 24.3763C102.461 24.6957 101.94 25.1226 101.514 25.6344C101.071 26.1768 100.84 26.8584 100.864 27.5547C100.852 27.9908 100.922 28.4254 101.071 28.8361C101.197 29.1598 101.377 29.4599 101.606 29.7235H87.0599V24.1135H85.9058V31.3644C85.9058 31.7586 85.8906 32.1383 85.8603 32.5034C85.838 32.8388 85.7596 33.1683 85.6281 33.4784C85.5077 33.7556 85.3118 33.9945 85.0622 34.1685C84.7575 34.3582 84.4007 34.45 84.041 34.4314V35.5704C84.6072 35.5989 85.1697 35.4658 85.6613 35.1871C86.0504 34.9421 86.365 34.5977 86.5718 34.1905C86.7844 33.7643 86.9197 33.3046 86.9716 32.8323C87.0306 32.3451 87.061 31.855 87.0626 31.3644V30.8607H106.236V23.4346C105.763 23.4877 105.293 23.5719 104.831 23.6866Z" fill="white"></path><path d="M163.88 35.7879C163.863 34.6548 163.798 32.8045 163.755 31.9504C162.059 33.3366 160.229 34.5555 158.292 35.5898L157.415 36.0589L157.42 35.4366C157.42 35.3678 157.661 26.9446 153.514 19.687C153.252 20.0307 152.38 21.1248 151.483 22.2512C151.767 22.2167 152.056 22.2483 152.325 22.3436C152.595 22.4389 152.838 22.5951 153.036 22.7998C154.354 24.2349 155.395 25.8963 156.106 27.7017C156.614 29.1788 156.849 30.7335 156.801 32.2923V32.2892C156.801 32.2892 156.3 40.8655 155.307 49.082C154.404 56.5441 153.906 57.5236 153.906 57.5236C153.445 56.9106 153.12 56.2083 152.953 55.4626L152.87 55.5323C152.454 54.8511 152.168 54.1001 152.027 53.3168C151.707 51.2961 151.578 49.2504 151.641 47.2062L151.638 47.2143C151.618 46.8115 151.505 46.4185 151.306 46.0663C151.139 45.7322 151.01 45.3814 150.919 45.0198C150.916 45.0152 150.914 45.0102 150.912 45.005C150.369 42.7135 149.307 42.0647 148.722 41.3526C148.096 40.5963 147.579 39.7587 147.184 38.8634C147.166 38.8783 147.153 38.8863 147.127 38.9084C146.812 39.1528 146.573 39.4798 146.438 39.8519C146.571 41.194 146.695 42.147 146.493 42.829C146.394 42.7581 146.299 42.6816 146.208 42.5999C146.299 43.4882 145.874 44.5135 146.144 45.3263L145.615 45.2607C145.63 45.3051 145.65 45.3481 145.673 45.3892C145.744 45.484 145.836 45.561 145.943 45.6138C145.967 45.6278 146.074 45.6767 146.116 45.6956C146.159 45.7145 146.295 45.7675 146.663 45.8866C146.787 45.6145 146.83 45.3135 146.789 45.018C146.748 44.7226 146.623 44.4445 146.43 44.2156C146.176 43.9118 146.481 43.4688 147.005 43.6957C147.814 44.0447 148.554 44.5336 149.19 45.1394C150.301 46.1777 150.626 47.1806 150.39 47.3796C150.207 47.5328 150.071 47.5 149.85 47.4245C149.85 47.4643 149.844 47.504 149.831 47.5418C149.794 47.6443 149.731 47.7356 149.647 47.8065C149.564 47.8774 149.463 47.9255 149.354 47.9462L149.331 47.9848C149.213 48.1502 149.021 48.2095 148.684 48.2027C148.457 48.1833 148.237 48.1175 148.037 48.0095C147.956 47.9698 147.882 47.9173 147.817 47.8541C147.754 47.899 147.687 47.9556 147.621 48.0095C148.497 49.1777 150.18 51.1044 151.382 53.2215C151.889 54.1045 152.31 55.0331 152.639 55.9946C152.292 56.0851 151.929 56.0899 151.58 56.0086C151.78 56.4984 151.877 57.0237 151.863 57.5519C151.269 57.5819 150.678 57.4466 150.158 57.1615C150.177 57.2581 150.195 57.3556 150.21 57.4553C150.75 57.8395 151.353 58.2798 151.617 58.4622C148.982 59.6821 145.164 59.1236 145.091 59.1146C144.909 59.0908 144.745 59.0656 144.6 59.0441C144.574 59.1106 144.541 59.1964 144.507 59.2822C144.764 59.8865 145.362 61.2884 145.496 61.5692C147.169 62.3249 148.729 62.821 151.126 62.4265C151.614 62.3467 152.093 62.2203 152.557 62.0491C154.232 61.3681 155.766 60.3902 157.084 59.1636C158.439 57.9184 159.584 56.4689 160.479 54.8691C163.396 49.2474 163.876 40.9082 163.876 37.5375C163.876 36.4322 163.879 35.8369 163.879 35.7852M145.658 63.9024C145.65 63.8813 144.695 61.4618 144.114 59.9903C144.033 60.1214 143.927 60.2357 143.802 60.3269C143.608 60.2301 143.43 60.1042 143.275 59.9535C143.509 61.1709 143.667 62.4013 143.747 63.6378C144.058 63.496 144.404 63.4457 144.743 63.4928C145.082 63.54 145.4 63.6827 145.659 63.9038M143.244 64.6335C143.29 63.587 142.862 60.7829 142.597 59.1838C142.568 59.1389 142.54 59.098 142.51 59.0535C142.459 58.9839 142.407 58.9102 142.357 58.8343C142.259 59.1729 142.138 59.5043 141.993 59.8259C141.873 60.1244 141.695 60.3966 141.468 60.6265C140.896 60.2262 140.447 59.6784 140.17 59.0432C139.893 59.6679 139.449 60.2061 138.885 60.5996C138.659 60.3687 138.481 60.0964 138.361 59.798C138.278 59.6219 138.21 59.4426 138.146 59.2651C137.892 60.9433 137.519 63.6365 137.567 64.6321C135.988 63.6014 135.028 64.6321 135.355 65.3479C135.385 65.4069 135.42 65.4633 135.46 65.5164C135.551 65.6386 135.668 65.7391 135.804 65.8103C135.94 65.8814 136.09 65.9215 136.244 65.9275C136.914 65.9448 137.575 66.0934 138.188 66.3646C139.058 66.7847 139.817 67.4002 140.403 68.1619C140.989 67.4003 141.747 66.7848 142.618 66.3646C143.23 66.0932 143.892 65.9446 144.563 65.9275C144.715 65.9166 144.864 65.8744 144.999 65.8036C145.133 65.7328 145.252 65.6349 145.346 65.5164C145.387 65.4641 145.423 65.4076 145.452 65.3479C145.778 64.629 144.819 63.6014 143.241 64.6321M135.148 63.9024C135.407 63.6819 135.725 63.5395 136.064 63.4923C136.403 63.4452 136.749 63.4952 137.06 63.6365C137.137 62.3704 137.28 61.1091 137.49 59.8578C137.307 60.0486 137.093 60.2073 136.857 60.3269C136.811 60.3269 136.75 60.272 136.685 60.1921C136.048 61.7265 135.157 63.8831 135.148 63.9042M135.307 61.5611L135.331 61.5004C135.445 61.1918 135.974 59.9472 136.242 59.315C136.203 59.2063 136.169 59.0948 136.138 58.9866C135.774 59.0463 135.406 59.0989 135.042 59.1357C134.798 59.1596 131.166 59.7113 128.532 58.4923C128.85 58.2704 129.454 57.7824 130.268 57.2626C130.277 57.2109 130.287 57.1561 130.297 57.1031C129.778 57.3895 129.187 57.5251 128.592 57.4944C128.58 56.9659 128.677 56.4404 128.878 55.9501C128.528 56.0319 128.164 56.0277 127.817 55.938C128.146 54.9759 128.567 54.0467 129.074 53.1631C129.925 51.7489 130.89 50.4036 131.957 49.14C132.049 48.8034 132.224 48.4946 132.467 48.2414C132.491 48.2153 132.603 48.0949 132.625 48.072C132.516 47.9763 132.413 47.8923 132.313 47.819C132.241 47.9003 132.153 47.9669 132.055 48.0154C131.853 48.1208 131.633 48.1865 131.405 48.2086C131.069 48.2216 130.878 48.156 130.76 47.9907L130.738 47.952C130.629 47.9312 130.528 47.883 130.444 47.8122C130.361 47.7413 130.297 47.6501 130.26 47.5476C130.248 47.5078 130.241 47.4665 130.241 47.425C130.164 47.4638 130.076 47.4782 129.991 47.4663C129.905 47.4544 129.825 47.4168 129.761 47.3585C129.526 47.1621 129.852 46.1588 130.961 45.1182C131.597 44.5137 132.337 44.0252 133.146 43.6755C133.67 43.4477 133.976 43.8916 133.721 44.1945C133.527 44.4243 133.403 44.7033 133.363 44.9996C133.323 45.2959 133.368 45.5974 133.493 45.8695C133.812 45.767 133.935 45.714 133.983 45.696C134.158 45.6443 134.312 45.5381 134.421 45.3932C134.442 45.3566 134.46 45.3179 134.474 45.2777L134.012 45.3326C134.248 44.757 133.884 43.3511 134.123 42.439C134.023 42.51 133.917 42.5702 133.804 42.6187C133.662 41.6969 133.636 40.7612 133.726 39.833C133.608 39.5252 133.41 39.2534 133.153 39.0445C132.788 39.9066 132.291 40.708 131.679 41.4204C131.091 42.1326 130.029 42.7796 129.485 45.0747C129.485 45.0787 129.481 45.0845 129.479 45.0886C129.389 45.45 129.26 45.8009 129.094 46.135C128.894 46.4869 128.78 46.8794 128.759 47.2821V47.274C128.823 49.3183 128.694 51.3639 128.374 53.3846C128.233 54.1675 127.947 54.9181 127.532 55.5992L127.448 55.5296C127.282 56.2761 126.956 56.9789 126.492 57.5906C126.492 57.5906 125.993 56.6124 125.093 49.1499C124.099 40.9329 123.597 32.3579 123.597 32.3579H123.601C123.552 30.7991 123.787 29.2443 124.296 27.7678C125.007 25.9633 126.048 24.303 127.366 22.8694C127.582 22.6453 127.853 22.4795 128.152 22.3877C128.451 22.2958 128.77 22.281 129.076 22.3446L128.734 21.8953C128.163 21.1454 127.502 20.3227 126.94 19.5863C122.874 26.6562 122.975 35.0874 122.975 35.1584L122.981 36.0571L122.267 35.6819C120.272 34.6239 118.387 33.3754 116.639 31.9544C116.594 32.8108 116.507 35.7151 116.507 35.7151C116.503 35.7659 116.507 36.3765 116.507 37.4805C116.507 40.853 117.12 49.1265 119.905 54.812C120.762 56.4304 121.88 57.9002 123.216 59.1636C124.624 60.4693 126.312 61.4444 128.155 62.0163C128.261 62.0513 128.474 62.1209 128.583 62.1537C129.688 62.4969 130.851 62.621 132.005 62.519C133.16 62.4169 134.282 62.0908 135.308 61.5593M116.696 31.0064C118.437 32.4382 120.307 33.7101 122.283 34.8062C122.349 29.279 123.795 23.8531 126.491 19.0081C126.025 18.3988 125.819 18.1288 125.375 17.5465C124.989 17.9231 124.507 18.1901 123.98 18.3193C124.024 17.2644 123.787 16.2165 123.293 15.2802C122.246 15.3165 121.199 15.2191 120.177 14.9904C118.117 19.3379 117.075 24.3584 116.696 31.0086M120.195 14.9517C120.669 14.6802 121.085 14.3216 121.422 13.8954C121.6 13.6434 121.759 13.3783 121.896 13.1024C121.88 13.0826 121.472 12.5632 121.472 12.5632C121.009 13.3369 120.583 14.1325 120.194 14.9499M122.278 12.3439C122.334 12.2424 122.399 12.1455 122.471 12.0541C121.458 10.7426 120.774 9.86556 120.709 9.78469C120.364 9.29042 120.202 8.69348 120.251 8.09484C119.516 7.76024 118.81 7.36698 118.141 6.919C118.141 6.919 120.101 9.48815 122.28 12.3448M122.413 11.2944C122.52 11.4345 122.631 11.5801 122.748 11.7315C124.458 9.62013 126.734 8.02477 129.317 7.12703C129.123 6.85621 129.044 6.52201 129.095 6.19455C129.146 5.86708 129.323 5.57182 129.59 5.37069C129.59 5.37069 129.593 5.37069 129.594 5.37069C130.752 5.51402 131.042 6.20326 131.115 6.56046C133.513 5.95652 135.972 5.62146 138.445 5.56165C138.542 3.67995 139.895 3.22525 139.895 3.22525C139.902 3.12649 139.934 3.0311 139.989 2.94802C140.044 2.86495 140.119 2.79692 140.207 2.75033C140.207 2.75033 140.213 2.75033 140.213 2.75033C140.302 2.79701 140.377 2.86496 140.432 2.94795C140.488 3.03094 140.521 3.12629 140.529 3.22525C140.529 3.22525 141.88 3.6795 141.978 5.56165C144.45 5.62179 146.907 5.95654 149.303 6.55956C149.374 6.20011 149.663 5.51312 150.822 5.36979C150.823 5.36951 150.825 5.36951 150.826 5.36979C151.093 5.57121 151.27 5.86662 151.321 6.19416C151.372 6.52171 151.292 6.85599 151.099 7.12703C153.707 8.0454 156.005 9.6588 157.739 11.7882C157.859 11.6327 157.974 11.4835 158.084 11.3388C156.458 9.40931 154.375 7.90436 152.021 6.95675C152.134 6.64288 152.152 6.30331 152.074 5.9793C151.995 5.65529 151.823 5.36081 151.578 5.13166C151.579 4.99866 151.545 4.86761 151.48 4.75113C151.415 4.63466 151.321 4.53669 151.206 4.46668C151.206 4.46644 151.205 4.46632 151.205 4.46632C151.204 4.46632 151.204 4.46644 151.203 4.46668C151.058 4.45946 150.913 4.48312 150.777 4.53606C150.642 4.58901 150.52 4.67 150.419 4.77356C150.063 4.81232 149.722 4.93721 149.427 5.13715C149.131 5.33709 148.89 5.6059 148.725 5.91974C146.7 5.45909 144.635 5.18711 142.558 5.1074C142.539 4.63062 142.384 4.16874 142.112 3.77457C141.839 3.3804 141.46 3.06983 141.017 2.87838C140.945 2.70985 140.834 2.5601 140.694 2.44091C140.553 2.32171 140.386 2.2363 140.207 2.19139C140.027 2.23617 139.86 2.32153 139.719 2.44075C139.579 2.55996 139.468 2.70977 139.396 2.87838C138.954 3.0697 138.575 3.37987 138.303 3.77352C138.03 4.16717 137.876 4.62844 137.856 5.1047C135.779 5.18442 133.714 5.45655 131.689 5.9175C131.523 5.60353 131.282 5.33465 130.987 5.1347C130.691 4.93476 130.35 4.80994 129.994 4.77131C129.893 4.66756 129.772 4.58637 129.637 4.53325C129.502 4.48014 129.357 4.45636 129.211 4.46354C129.097 4.53433 129.002 4.63287 128.937 4.74981C128.872 4.86675 128.838 4.9982 128.839 5.13166C128.594 5.36048 128.421 5.65492 128.342 5.97902C128.263 6.30311 128.282 6.64285 128.395 6.95675C126.064 7.88222 124.006 9.37374 122.414 11.293M157.997 12.1332C158.025 12.1782 158.148 12.3893 158.18 12.4419C160.41 9.51241 162.459 6.83184 162.459 6.83184C161.789 7.28008 161.083 7.67334 160.348 8.00768C160.397 8.60632 160.235 9.20326 159.89 9.69752C159.823 9.78109 159.083 10.7282 158 12.1332M158.895 12.6585L158.499 13.1761C158.847 13.9224 159.436 14.5343 160.173 14.9167C159.787 14.1424 159.361 13.3886 158.895 12.6585ZM152.558 19.8245C152.726 19.5976 153.542 18.5215 154.64 17.0837C154.561 16.9934 154.488 16.8973 154.424 16.7961C153.668 17.7896 152.899 18.8081 152.163 19.7917C151.649 20.4438 151.176 21.1265 150.747 21.836C150.736 22.0512 152.147 20.3794 152.558 19.8245ZM138.576 58.3252C138.695 58.6903 138.846 59.0442 139.028 59.3829C139.551 58.8748 139.882 58.2049 139.965 57.485C139.789 57.6301 139.605 57.7652 139.414 57.8894C139.086 58.0785 138.787 58.2277 138.576 58.3274M129.44 58.3274C130.565 58.7588 133.692 58.7992 135.152 58.619C136.767 58.4631 138.315 57.9043 139.651 56.9952C139.34 56.7324 138.957 56.3851 138.559 56.0144C138.089 56.4202 137.571 56.7682 137.016 57.051C135.347 57.6413 133.608 58.0148 131.841 58.1621C131.841 58.1621 135.676 57.3039 137.014 56.5895C137.437 56.3213 137.837 56.0193 138.21 55.6864C137.716 55.2196 137.231 54.7447 136.865 54.3852C136.64 54.5822 136.404 54.7664 136.157 54.937C135.593 55.2757 134.997 55.5592 134.376 55.7835C132.633 56.432 130.975 57.2862 129.439 58.3274M133.842 36.0867C134.043 35.4644 134.275 31.4737 132.673 29.7537C133.283 31.8186 133.675 33.9403 133.842 36.0849M130.808 26.1885C130.721 26.7439 130.738 27.3104 130.86 27.8594C130.962 28.1882 131.09 28.5085 131.243 28.8174C131.277 27.9212 131.129 27.0274 130.808 26.1885ZM131.621 27.469C131.659 28.607 131.869 29.733 132.245 30.8096C132.29 29.352 131.983 27.8644 131.621 27.469ZM125.794 16.9552C126.972 18.5044 127.86 19.6735 128.037 19.9112C128.447 20.4656 129.858 22.1375 129.848 21.9227C129.421 21.2126 128.948 20.5298 128.433 19.8784C127.641 18.8189 126.81 17.7217 126 16.6533C125.923 16.7638 125.855 16.8662 125.796 16.957M124.754 11.4925C124.753 11.4907 124.752 11.489 124.75 11.4876C124.63 11.3559 124.322 11.0931 123.574 11.6224C122.238 12.76 122.67 13.7966 121.294 14.7118C121.695 14.7852 122.102 14.8237 122.51 14.8268C122.704 14.8266 122.899 14.8153 123.093 14.7931C123.345 14.7644 123.548 14.7235 123.733 14.6974H123.737C124.083 15.4612 124.52 16.1563 124.511 17.4526C126.117 16.6133 125.461 13.903 126.957 13.9309C126.116 12.9977 124.893 11.6417 124.755 11.4912M155.44 10.8621C154.3 9.81449 152.982 8.97164 151.548 8.37162C147.24 6.50654 141.774 6.49755 140.212 6.49755C140.212 6.49755 140.212 6.49755 140.208 6.49441C140.203 6.49126 140.203 6.49755 140.202 6.49755C138.64 6.49755 133.173 6.50654 128.865 8.37162C127.431 8.97136 126.114 9.81425 124.974 10.8621C124.974 10.8621 126.924 13.0188 127.429 13.6029C127.564 13.7336 127.655 13.9021 127.691 14.0857C127.726 14.2693 127.703 14.4592 127.625 14.6296C130.619 12.6481 134.022 11.6592 140.088 11.6192H140.361C146.321 11.6749 149.824 12.6679 152.79 14.6296C152.713 14.459 152.69 14.2694 152.725 14.0859C152.761 13.9025 152.852 13.734 152.986 13.6029C153.491 13.0188 155.445 10.8621 155.445 10.8621M154.59 15.3947C154.788 16.0727 155 16.8276 155.578 17.2845C155.66 17.3488 155.749 17.4055 155.841 17.4539L155.855 17.4629C155.841 16.1653 156.285 15.4635 156.628 14.7028C156.628 14.6988 156.63 14.695 156.633 14.692C157.436 14.8626 158.266 14.8688 159.071 14.71C157.832 13.8833 158.1 12.9599 157.179 11.9512C157.073 11.8349 156.96 11.7252 156.84 11.6228C156.626 11.4481 156.365 11.3388 156.089 11.3083C156.009 11.3039 155.928 11.3182 155.854 11.3498C155.78 11.3815 155.715 11.4297 155.663 11.4907C155.543 11.621 154.252 12.99 153.403 13.9313C154.163 13.9143 154.365 14.6053 154.59 15.3979M153.537 17.2728C153.669 17.1017 153.799 16.9314 153.929 16.762C151.858 14.9566 149.367 13.6836 146.677 13.0556C145.212 12.7411 143.715 12.5944 142.216 12.6185C141.416 12.6293 140.902 12.933 140.902 13.4272C140.405 13.3374 140.269 12.7191 140.206 12.6036C140.161 12.8633 139.915 13.3675 139.515 13.4272C139.515 12.933 139.001 12.6297 138.2 12.6185C136.699 12.5942 135.2 12.7409 133.733 13.0556C131.058 13.6327 128.578 14.8741 126.526 16.6622C126.655 16.8307 126.784 17.0006 126.915 17.1709C128.612 15.6399 130.645 14.5173 132.855 13.8909C134.551 13.4257 136.305 13.1963 138.065 13.2093C139.002 13.2502 139.137 13.7759 139.025 14.063C139.251 14.0599 139.474 14.0082 139.678 13.9115C139.882 13.8147 140.062 13.6752 140.205 13.5027C140.349 13.6758 140.529 13.8157 140.733 13.9125C140.938 14.0094 141.161 14.0607 141.388 14.063C141.277 13.7754 141.411 13.2493 142.349 13.2093C144.109 13.1958 145.863 13.4246 147.559 13.8891C149.779 14.5704 151.82 15.7256 153.537 17.2728ZM146.589 25.5563C146.81 25.5727 147.03 25.5219 147.221 25.4107C147.331 25.352 147.423 25.2659 147.489 25.1609C148.844 23.2221 151.364 20.1057 153.25 17.648C149.393 13.8914 143.871 13.6344 142.436 13.739C142.095 13.7629 141.712 14.0288 142.138 14.5784C141.807 14.6449 141.467 14.6463 141.135 14.5826C140.804 14.5188 140.488 14.3911 140.207 14.2068C139.926 14.3911 139.61 14.5188 139.279 14.5826C138.947 14.6464 138.606 14.6449 138.275 14.5784C138.702 14.0288 138.32 13.7629 137.978 13.739C136.529 13.6344 130.722 14.1919 127.217 17.5676C129.15 20.0864 133.186 25.3527 133.269 25.4565C133.335 25.5288 133.416 25.5867 133.506 25.6266C133.596 25.6665 133.694 25.6875 133.792 25.6884C133.824 25.6884 133.854 25.6884 133.886 25.6884C134.137 25.6466 134.361 25.5093 134.511 25.306C134.926 24.8567 135.135 24.6051 135.545 24.1908C136.339 23.3884 137.087 22.7796 137.211 22.6663C137.341 22.5716 137.448 22.4509 137.527 22.3122C137.605 22.1735 137.653 22.0199 137.667 21.8616C137.647 21.5741 137.416 21.4604 137.275 21.2861C137.255 21.3224 137.231 21.3567 137.204 21.3885C137.08 21.2252 136.985 21.0423 136.924 20.8475L136.849 21.0529C136.849 21.0529 136.55 20.3443 136.079 20.4072C135.696 20.4599 135.306 20.389 134.968 20.205C134.926 20.192 134.9 20.4081 134.915 20.6543C134.906 20.6529 134.898 20.6495 134.891 20.6445C134.76 20.5078 134.661 20.3436 134.602 20.1641C134.544 19.9846 134.527 19.7944 134.553 19.6076C134.58 19.4209 134.648 19.2423 134.754 19.0853C134.86 18.9283 135 18.7969 135.165 18.7007C135.477 18.467 135.823 18.2797 136.191 18.145C136.325 18.0737 136.441 17.9752 136.533 17.8561C136.847 17.5582 137.238 17.3527 137.664 17.2625C138.405 17.1013 139.166 17.0404 139.924 17.0814C140.395 17.105 140.858 17.2029 141.297 17.3712C141.882 17.6928 142.398 18.1242 142.816 18.641C143.239 19.3149 143.599 20.0255 143.891 20.764C144.48 22.1838 144.409 22.0306 144.81 22.9723C145.108 23.7747 145.502 24.5395 145.982 25.2508C146.048 25.349 146.139 25.4288 146.245 25.4823C146.351 25.5359 146.47 25.5613 146.589 25.5563ZM134.776 35.8769C134.793 36.2053 134.888 36.5252 135.051 36.8117C135.215 37.0981 135.444 37.3432 135.72 37.5276C135.501 36.929 135.182 36.371 134.776 35.8769ZM142.11 42.1488C141.941 42.4249 141.728 42.6718 141.479 42.8798C141.534 42.7172 141.57 42.5487 141.585 42.3779C141.42 42.6661 141.216 42.931 140.979 43.1655C140.712 43.4117 140.521 43.7261 140.425 44.0736C140.627 43.8729 140.86 43.7059 141.116 43.5794C141.623 43.2473 141.981 42.7345 142.113 42.1483M142.493 47.992C142.202 47.5912 141.876 47.2166 141.518 46.8723C141.679 47.2375 141.816 47.6128 141.928 47.9956C141.947 47.9819 141.968 47.9701 141.99 47.9606C142.051 47.9279 142.12 47.9123 142.189 47.9156C142.263 47.9209 142.336 47.936 142.406 47.9606C142.406 47.9606 142.463 47.9794 142.493 47.9916M142.186 52.7888C142.528 53.1173 142.905 53.4947 143.206 53.7903C143.383 53.6021 143.531 53.439 143.648 53.3123L142.62 52.3723C142.62 52.3723 142.456 52.5296 142.186 52.7884M140.328 50.9309C140.783 51.4059 141.397 52.0353 141.799 52.4244C142.062 52.1715 142.223 52.0201 142.223 52.0201L140.653 50.5917C140.587 50.6622 140.475 50.7809 140.328 50.9323M140.159 50.075C140.162 50.3158 140.167 50.5041 140.169 50.5957C140.191 50.5746 140.426 50.3262 140.426 50.3262C140.426 50.3262 140.225 50.1491 140.159 50.0732M140.152 49.778C140.17 49.7542 140.416 49.4635 140.543 49.3359C140.551 49.3288 140.558 49.3211 140.565 49.313C140.523 48.7922 140.391 48.2824 140.174 47.806C140.137 48.0648 140.145 49.0398 140.154 49.7767M140.808 47.1549C140.881 47.5872 140.939 48.5927 140.955 48.9153C141.072 48.7958 141.197 48.6705 141.319 48.5487C141.248 48.0542 141.073 47.5798 140.805 47.1559M140.106 46.7322C140.221 46.6798 140.332 46.6198 140.438 46.5524C140.637 46.4491 140.804 46.2936 140.92 46.1031C141 45.9498 141.027 45.7743 140.995 45.6044C140.933 45.7739 140.825 45.9234 140.682 46.0366C140.553 46.1513 140.431 46.2741 140.318 46.4042C140.236 46.5057 140.165 46.6158 140.107 46.7326M139.735 43.866C139.74 43.1471 138.939 43.0636 138.754 42.3496C138.663 43.3552 139.37 43.3682 139.735 43.866ZM140.169 45.506C140.17 45.5008 140.172 45.4956 140.173 45.4903V45.506C140.244 45.3755 140.346 45.2646 140.472 45.1834C140.913 44.9219 141.331 44.6224 141.719 44.2884C141.836 44.1157 141.92 43.9242 141.97 43.7227C141.831 43.9149 141.651 44.0742 141.442 44.1891C141.016 44.4103 140.625 44.6917 140.281 45.0243C140.229 45.1095 140.195 45.2046 140.182 45.3034C140.173 45.2311 140.153 45.1608 140.121 45.0953C139.897 44.6343 139.234 44.4492 138.834 43.9941C138.574 43.6984 138.564 43.578 138.564 43.578C138.54 43.8256 138.602 44.0737 138.741 44.2816C139.001 44.5625 139.299 44.8055 139.628 45.0037C139.85 45.1215 140.037 45.2945 140.17 45.5055M139.837 46.4275C139.815 46.275 139.759 46.1294 139.672 46.0013C139.586 45.8732 139.471 45.766 139.337 45.6875C139.356 46.0919 139.837 46.4275 139.837 46.4275ZM139.622 49.3233C139.607 48.887 139.586 48.4112 139.557 48.2032C139.413 48.4349 139.315 48.6908 139.266 48.958C139.302 48.9967 139.587 49.2887 139.622 49.3233ZM137.209 48.1425C137.333 48.0976 137.643 47.9601 137.81 47.9179C137.848 47.908 137.915 47.8941 137.935 47.8918C138.035 47.5276 138.155 47.1692 138.295 46.8184C137.891 47.2243 137.527 47.668 137.209 48.1425ZM138.515 48.2176C138.515 48.2176 138.755 48.4476 138.801 48.4925C138.896 47.9865 138.946 47.4729 138.948 46.9582C138.726 47.3472 138.579 47.7739 138.515 48.2162M138.547 42.0674C138.541 41.9147 138.501 41.7651 138.43 41.6294C138.314 41.4806 138.186 41.342 138.046 41.2151C138.001 41.1679 137.966 41.1115 137.945 41.0498C137.937 41.2291 137.96 41.4085 138.012 41.5804C138.057 41.7315 138.157 41.8608 138.294 41.943C138.372 41.9963 138.458 42.0388 138.548 42.0692M138.229 49.6279C138.178 49.6769 134.937 52.6877 134.937 52.6877C135.146 52.8958 135.362 53.1249 135.51 53.2718C135.575 53.3374 135.611 53.3334 135.664 53.2849C135.867 53.1024 139.146 50.1424 139.42 49.8993C139.427 49.8953 139.432 49.8898 139.437 49.8832C139.441 49.8766 139.443 49.8691 139.444 49.8614C139.445 49.8536 139.444 49.8458 139.441 49.8386C139.438 49.8314 139.433 49.8249 139.427 49.8198C139.276 49.6643 138.941 49.2851 138.686 49.0182C138.389 48.7046 138.006 48.3155 137.767 48.3852C137.564 48.4476 137.357 48.4977 137.147 48.5352C136.646 48.6152 136.132 48.5832 135.645 48.4418C135.621 48.4359 135.597 48.426 135.572 48.4206C135.565 48.4984 135.555 48.5761 135.544 48.6453C135.533 48.7145 135.519 48.7837 135.501 48.8614C135.954 48.9247 136.411 48.9448 136.867 48.9212C137.124 48.9252 137.285 49.0048 137.062 49.2537L134.792 51.4921C134.341 51.9104 134.314 52.012 134.444 52.1544C134.478 52.193 134.463 52.1674 134.588 52.2937L135.463 51.5267L136.862 50.297C136.862 50.297 137.879 49.3637 137.925 49.3112C137.942 49.2898 137.968 49.2759 137.995 49.2724C138.023 49.2689 138.051 49.276 138.073 49.2923C138.096 49.3193 138.239 49.4626 138.262 49.4905C138.274 49.5135 138.277 49.54 138.271 49.5652C138.265 49.5904 138.25 49.6126 138.229 49.6279ZM143.288 48.9477C143.728 48.9671 144.168 48.9495 144.604 48.8951C144.582 48.8053 144.564 48.7199 144.552 48.6462C144.543 48.5873 144.534 48.5258 144.528 48.462C144.522 48.4633 144.516 48.4649 144.51 48.4669C144.022 48.609 143.508 48.641 143.005 48.5604C142.796 48.5235 142.589 48.4729 142.387 48.409C142.147 48.3402 141.765 48.7316 141.468 49.0434C141.214 49.3094 140.876 49.6886 140.728 49.8441C140.722 49.8491 140.718 49.8555 140.715 49.8626C140.712 49.8698 140.71 49.8776 140.711 49.8853C140.711 49.893 140.714 49.9006 140.718 49.9072C140.722 49.9139 140.728 49.9195 140.734 49.9236C141.007 50.1667 144.285 53.1267 144.489 53.31C144.542 53.3549 144.58 53.3617 144.645 53.2961C144.792 53.1487 145.009 52.9209 145.219 52.712C145.219 52.712 141.975 49.7016 141.923 49.6531C141.903 49.637 141.888 49.6143 141.882 49.5889C141.876 49.5634 141.879 49.5368 141.891 49.5134C141.914 49.4864 142.055 49.3422 142.081 49.3152C142.103 49.2993 142.131 49.2924 142.158 49.2959C142.186 49.2994 142.211 49.3131 142.228 49.3341C142.274 49.3867 143.292 50.3226 143.292 50.3226L144.691 51.5492L145.57 52.3211C145.695 52.1917 145.678 52.2186 145.713 52.1796C145.843 52.0371 145.812 51.9428 145.366 51.5182C145.24 51.3978 143.095 49.2797 143.095 49.2797C142.873 49.0308 143.033 48.9513 143.291 48.9472M142.626 40.2406C142.626 40.2347 143.138 39.7598 143.324 38.1737C143.474 38.296 143.59 38.4549 143.658 38.6347C143.985 38.2443 144.63 36.1186 144.701 35.3925C144.915 35.4824 144.725 35.4375 144.969 35.5579C145.369 34.5341 145.608 33.4558 145.677 32.3606C145.757 32.3835 145.895 32.3835 145.953 32.4505C146.065 31.6839 146.18 30.4519 146.213 29.5897C146.277 28.5328 146.171 27.4726 145.9 26.4482C145.666 25.6958 145.335 24.9762 144.915 24.3072C144.81 24.3583 144.717 24.4309 144.642 24.5202C144.431 23.9018 144.188 23.2946 143.913 22.7009C143.426 21.7628 143.194 21.1576 142.687 20.8417C142.889 20.8744 143.093 20.8914 143.297 20.8925C143.037 20.6082 142.76 20.3402 142.467 20.09C142.591 20.0091 142.803 20.0163 143.157 20.0779C142.656 19.6286 142.487 18.9398 141.199 18.4568C141.437 18.4522 141.675 18.4612 141.912 18.4837C141.624 18.073 141.2 17.7732 140.714 17.635C139.394 17.3793 137.571 17.3384 136.72 18.3314C136.565 18.4186 136.399 18.483 136.225 18.5224C136.137 18.5503 136.055 18.592 135.981 18.6459C135.832 18.7515 135.805 18.8998 136.087 19.297C135.715 19.2431 135.622 18.8926 135.556 18.9294C135.397 19.0306 135.263 19.1654 135.164 19.3239C135.031 19.5459 134.961 19.799 134.962 20.0568C134.999 20.0868 135.043 20.1061 135.09 20.1124C135.137 20.1187 135.185 20.1117 135.229 20.0923C135.272 20.0729 135.309 20.0418 135.335 20.0026C135.362 19.9634 135.376 19.9177 135.378 19.8707C135.401 19.7454 135.978 19.691 136.178 19.691C136.467 19.691 136.737 19.7598 137.098 19.7427C136.968 19.7876 136.561 19.9049 136.412 19.9467C136.25 19.9916 136.235 20.1637 136.388 20.1767C136.555 20.1947 136.63 20.1219 136.792 20.0842C136.867 20.1291 136.792 20.3061 136.852 20.4117C137.916 20.1695 137.994 21.2991 139.129 21.0758C138.592 20.6678 138.138 19.979 137.718 19.7719C138.837 19.9431 139.444 20.9347 140.653 20.985C140.612 20.8757 140.562 20.7697 140.505 20.6678C140.92 20.6678 141.212 20.9823 141.334 20.9707C141.058 21.1862 140.721 21.3118 140.369 21.3301C140.452 21.4806 140.904 21.5125 141.057 21.539C140.913 21.6651 140.738 21.7516 140.55 21.7897C140.361 21.8278 140.166 21.8162 139.984 21.756C139.641 22.1562 139.233 22.4971 138.776 22.7647C138.781 22.6411 138.795 22.5179 138.818 22.3963C138.299 22.6928 137.957 23.2356 137.568 23.3848C137.682 23.1947 137.779 22.8622 137.864 22.6937C136.502 23.9096 135.199 25.0814 134.709 25.9607C134.163 26.9415 133.99 27.9592 134.058 29.6311C134.111 30.5261 134.498 33.0674 134.568 33.567C134.676 33.5221 134.754 33.4771 134.847 33.4466C135.211 35.2933 135.821 37.0842 136.663 38.7722C136.717 38.6123 136.821 38.4739 136.961 38.3777C137.049 38.9229 137.318 39.4237 137.726 39.8007C137.729 39.5737 137.788 39.3509 137.898 39.1514C138.011 39.5109 137.943 40.6342 138.597 41.2533C138.599 40.9194 138.655 40.588 138.763 40.2716C138.836 40.6697 138.94 41.0618 139.073 41.4447C139.214 41.8204 139.454 42.1516 139.77 42.4035C139.749 41.9979 139.796 41.5916 139.909 41.2012C140.201 41.6566 140.377 42.174 140.425 42.7104C141.086 42.2085 141.342 40.5636 141.341 40.5654C141.503 40.7414 141.617 40.9548 141.672 41.1859C142.143 40.6155 142.461 39.9371 142.595 39.2134C142.658 39.5526 142.667 39.8992 142.622 40.241M131.903 33.1177C132.394 33.8128 133.343 36.0045 133.319 37.5299C133.908 36.0283 132.96 33.0391 132.044 31.3744C132.062 31.6712 131.977 31.9652 131.801 32.2069C131.627 30.2969 130.415 28.9081 130.203 27.5719C130.172 27.7696 130.126 27.9649 130.066 28.156C129.568 27.3049 129.198 26.3868 128.967 25.4305C128.817 25.6667 128.74 25.941 128.745 26.2199C128.141 24.5678 128.724 23.897 128.896 23.7981C129.354 23.5344 129.903 23.9554 130.327 24.4204C130.967 25.1223 131.637 26.5205 133.777 26.5564C134.127 26.5623 134.26 26.4769 134.081 26.4459C134.1 26.4491 134.095 26.4459 134.074 26.4459C132.299 26.1242 131.98 25.4183 130.498 23.8251C129.577 22.8366 128.657 22.2629 127.567 23.5295C125.971 25.3003 124.876 27.4542 124.391 29.7748C124.176 30.7458 124.031 32.809 124.293 33.8155C124.543 33.7256 124.558 33.66 124.558 33.66C124.558 33.66 124.837 36.4718 125.326 37.1731C125.546 36.6312 125.663 36.0534 125.67 35.4694C125.85 36.1039 126.151 36.6986 126.557 37.2217C126.737 36.5292 126.771 35.8077 126.657 35.1018C127.086 36.1056 127.411 36.5338 127.642 36.6942C127.824 36.2489 128.006 35.5233 127.862 33.212C128.004 33.8969 128.105 34.5894 128.165 35.286C128.302 35.4016 128.453 35.4988 128.616 35.5749C128.695 35.34 128.928 35.0025 128.536 32.0978C129.521 35.2429 128.973 36.0966 128.876 36.3235C128.611 36.1732 128.377 35.9751 128.186 35.7394C128.227 36.3102 128.118 36.8818 127.87 37.3991C127.523 37.2001 127.234 36.9155 127.032 36.5733C127.063 37.109 126.988 37.6457 126.81 38.1526C126.424 37.7412 126.111 37.2679 125.886 36.753C125.866 37.348 125.706 37.9302 125.421 38.4546C124.606 37.396 124.328 34.3861 124.328 34.3861C124.328 34.3861 124.273 34.4238 124.206 34.4759C124.252 35.2088 124.343 36.3469 124.455 37.6355C124.455 37.6386 124.455 37.6427 124.455 37.6463C124.585 39.1456 124.737 40.8453 124.871 42.351C125.189 45.9577 125.594 49.5583 126.084 53.1528C126.118 53.4607 126.174 53.7658 126.252 54.0658C126.375 53.2086 126.4 52.3404 126.325 51.4777C126.495 50.9582 126.582 50.4157 126.583 49.8697C126.577 49.4293 126.07 43.8894 125.9 41.7188C125.878 41.4492 125.845 40.8651 125.847 40.8575C125.861 40.9253 125.879 41.0048 125.896 41.0866C126.067 41.9079 126.198 42.7365 126.322 43.5632C126.398 44.0574 126.472 44.58 126.545 45.1164C126.793 46.7201 126.947 48.3366 127.006 49.9577C127.033 50.9911 126.688 51.2841 126.721 51.5132C126.899 52.6008 126.817 53.7144 126.483 54.7653C126.387 54.7267 126.308 54.6571 126.259 54.5681C126.435 55.553 126.665 56.3366 126.665 56.3366C127.052 55.5121 127.275 54.6211 127.209 52.4235C127.415 51.8435 127.543 51.2393 127.589 50.6263C127.606 50.2907 127.543 49.2285 127.45 47.9098C127.28 45.555 127.075 43.201 126.886 40.8462C126.877 40.7357 126.855 40.454 126.854 40.4342C126.879 40.5375 126.906 40.6481 126.931 40.7609C127.55 43.8064 127.917 46.8968 128.028 50.0013C128.103 51.3942 127.573 52.4298 127.594 52.6302C127.654 53.0477 127.67 53.4703 127.64 53.891C127.652 54.1697 127.627 54.4487 127.567 54.7213C127.806 54.1821 128.578 52.3755 128.318 46.7393C128.312 46.6045 128.305 46.4657 128.296 46.3233C128.087 42.4013 127.772 39.838 127.772 39.838C128.14 40.9325 128.461 43.2976 128.678 46.0384C128.704 45.9975 128.729 45.9486 128.757 45.8982C129.123 44.8718 129.258 43.7792 129.153 42.696C129.019 40.6319 128.771 38.9421 128.773 38.9461C128.775 38.9501 128.819 39.0975 128.83 39.1155C129.022 39.7392 129.178 40.3735 129.296 41.0152C129.445 41.7459 129.548 42.4851 129.605 43.2285C129.612 43.3351 129.617 43.4386 129.62 43.5389C130.414 42.3707 130.076 40.0289 129.683 37.6036C130.282 39.0644 130.558 40.6344 130.493 42.209C131.687 41.1005 131.04 38.9097 130.591 36.3936C131.269 37.8902 131.766 39.7185 131.598 40.924C132.566 39.6834 132.205 38.0425 131.339 34.8233C132.042 36.1032 132.481 37.5082 132.631 38.9569C133.261 37.5002 132.532 35.0744 131.902 33.1159M133.157 44.4573C133.347 44.1558 133.069 44.074 132.516 44.4124C131.74 44.8716 131.047 45.4543 130.465 46.1368C130.326 46.326 130.371 46.4307 130.613 46.1876C131.191 45.6143 132.064 44.8203 132.048 45.1991C132.037 45.5399 132.094 45.8795 132.215 46.1988C132.309 46.1777 132.397 46.1539 132.478 46.1332L133.231 45.936C133.108 45.7103 133.038 45.4604 133.025 45.2044C133.012 44.9485 133.057 44.6929 133.157 44.4564M132.798 48.3577C132.463 48.6617 132.261 49.0825 132.235 49.5309C132.228 49.5981 132.235 49.6661 132.258 49.7301C132.28 49.794 132.316 49.8524 132.363 49.9011C132.411 49.9498 132.469 49.9876 132.533 50.0119C132.597 50.0362 132.665 50.0464 132.733 50.0418C133.172 49.9968 132.948 49.5367 133.196 49.8207C133.298 49.9371 133.63 49.5596 133.719 49.4702C133.529 49.4981 133.256 49.5291 133.3 49.2541C133.358 49.0541 133.466 48.8717 133.614 48.7235C133.731 48.582 134.091 47.9111 134.325 47.9925C134.435 48.0702 134.371 48.7046 134.183 49.0928C133.79 49.9213 133.724 50.4659 133.998 50.6232L134.02 50.6371L134.016 50.6618C133.969 50.8137 133.975 50.977 134.034 51.125C134.092 51.2731 134.2 51.3972 134.339 51.4773L134.372 51.4445C134.317 51.2473 134.324 51.038 134.394 50.8451C134.399 50.8141 134.418 50.7189 134.178 50.6551L134.157 50.6452L134.172 50.6393C134.302 50.6524 134.433 50.6551 134.563 50.6474C134.726 50.6214 134.91 50.5926 134.946 50.2839C134.958 50.1765 134.97 50.0719 134.98 49.9694C135.028 49.5568 135.098 49.1469 135.19 48.7415C135.27 48.3681 135.368 47.4542 135.368 47.4542C135.428 47.4367 135.49 47.4293 135.553 47.4322C135.633 47.4383 135.709 47.468 135.772 47.5173C135.835 47.5667 135.881 47.6334 135.905 47.7089C135.939 47.8093 135.942 47.9173 135.914 48.0194C135.981 47.9913 136.038 47.9463 136.082 47.8889C136.125 47.8315 136.152 47.7639 136.16 47.6928V47.6739L136.174 47.664C136.233 47.6297 136.283 47.5831 136.322 47.5275C136.36 47.472 136.386 47.4087 136.397 47.3423C136.449 47.0157 136.065 46.6809 136.029 46.6544C135.799 46.4774 135.875 46.1395 135.976 45.8488L136.109 45.5033C136.235 45.6556 136.388 45.7847 136.559 45.8848C136.868 46.1048 137.248 46.2051 137.627 46.1665C137.544 45.952 137.489 45.7277 137.466 45.4993C137.435 45.2007 137.424 44.9006 137.432 44.6006L137.837 45.0338C138.003 44.281 138.032 43.505 137.921 42.7423C137.855 41.8312 137.642 40.9363 137.291 40.0914C137.198 39.8225 137.082 39.5622 136.942 39.3136C136.889 39.4949 136.777 39.654 136.624 39.7665C136.163 39.2296 135.795 38.6213 135.535 37.9662C135.446 38.12 135.332 38.2585 135.198 38.3764L135.135 38.4343L135.121 38.3526C135.033 37.9697 134.847 37.6155 134.58 37.3241C134.414 37.1325 134.279 36.9165 134.181 36.6838C134.062 37.1405 133.996 37.6093 133.986 38.0807C133.989 38.4531 133.93 38.8234 133.812 39.177C133.897 39.1321 133.967 39.0872 134.023 39.0526C134.124 38.991 134.176 38.9578 134.22 38.96L134.252 38.965L134.265 38.9789C134.274 38.9895 134.279 39.0017 134.283 39.0147C134.286 39.0277 134.286 39.0412 134.284 39.0544C134.153 39.6097 134.057 40.1724 133.996 40.7393C133.953 41.1995 133.969 41.6631 134.041 42.1196C134.188 42.0248 134.34 41.9381 134.497 41.8599C134.315 42.616 134.272 43.3982 134.37 44.1693C134.386 44.4322 134.376 44.6959 134.341 44.9569C134.569 44.9176 134.787 44.8336 134.982 44.7098C134.92 45.0106 134.82 45.3026 134.686 45.5792C134.321 46.0649 133.556 46.1894 132.991 46.3359C132.29 46.4804 131.606 46.6972 130.951 46.9829C130.736 47.0885 130.531 47.3037 130.578 47.46C130.631 47.6272 130.876 47.6663 130.967 47.6663L131.018 47.771C131.176 48.005 131.68 47.8608 131.806 47.8037C131.911 47.7621 132.006 47.6971 132.081 47.6137C132.057 47.6523 131.889 47.5917 131.785 47.5508C131.766 47.5433 131.75 47.5318 131.737 47.5171C131.724 47.5025 131.714 47.4851 131.709 47.4663C131.676 47.1747 132.921 47.1356 133.099 47.1388C133.292 47.1428 133.358 47.1797 133.43 47.3041C133.475 47.3827 133.538 47.5589 132.801 48.3604M133.395 52.6136C133.048 53.6572 132.548 54.6452 131.912 55.5462C131.629 55.9268 131.318 56.2862 130.982 56.6214C130.982 56.6214 130.953 56.7189 130.92 56.8744L130.806 56.9359L131.427 56.5976C131.528 56.5477 131.629 56.4952 131.735 56.4462C132.144 56.2283 132.597 56.022 133.048 55.8338C133.494 55.0421 134.023 54.1053 134.189 53.8568C134.043 54.4665 133.831 55.0589 133.557 55.624L133.895 55.4892C134.601 55.2155 135.216 54.9972 135.51 54.857C135.836 54.7168 136.141 54.5344 136.419 54.3147C136.488 54.2604 136.555 54.2022 136.618 54.1403C136.629 54.1493 136.117 53.6403 136.117 53.6403L135.946 53.7795C135.873 53.8542 135.774 53.8991 135.669 53.9053C135.564 53.9115 135.46 53.8787 135.378 53.8132C135.15 53.6079 134.11 52.473 134.02 52.3674C133.92 52.2488 133.802 52.0466 134.041 51.6853C134.045 51.6795 134.047 51.6772 134.056 51.6655C133.936 51.5518 133.841 51.4146 133.778 51.2627C133.714 51.1109 133.684 50.9477 133.688 50.7836C133.611 50.6862 133.556 50.5735 133.527 50.4533C133.497 50.3331 133.495 50.208 133.519 50.0867C133.426 50.1464 133.316 50.1738 133.206 50.1644C133.093 50.2835 132.939 50.3556 132.774 50.3657C132.752 50.3675 132.731 50.3675 132.709 50.3657C132.543 50.3721 132.38 50.3211 132.247 50.2215C132.13 50.1445 132.04 50.0319 131.993 49.9007C131.986 49.886 131.98 49.871 131.974 49.8557C131.235 50.6819 130.579 51.5773 130.016 52.5291C129.418 53.3754 128.934 54.2953 128.578 55.2654C129.232 55.2245 129.599 55.1279 130.451 54.2446C130.849 53.8362 131.884 52.3206 132.539 51.5141C132.112 52.5827 131.558 53.5972 130.888 54.5362C130.547 55.0009 130.154 55.4261 129.716 55.8037C129.716 55.8037 129.468 55.956 129.314 56.7517C129.758 56.7418 130.907 56.1195 131.985 54.6894C132.323 54.2401 132.544 53.8847 133.397 52.6104M140.493 57.675C140.558 58.3216 140.846 58.9265 141.309 59.3887C141.516 59.0666 141.641 58.6996 141.673 58.3193C141.26 58.1433 140.865 57.9275 140.495 57.675M145.002 58.5952C146.463 58.7749 149.591 58.7336 150.716 58.3036C149.179 57.2628 147.521 56.4083 145.777 55.7587C145.157 55.5345 144.56 55.251 143.995 54.9122C143.71 54.7149 143.438 54.4988 143.182 54.2652C142.283 53.4475 139.92 51.0167 139.501 50.5656L137.93 51.9926C137.93 51.9926 142.089 56.0014 143.138 56.563C144.476 57.2787 148.31 58.1356 148.31 58.1356C146.543 57.9888 144.804 57.6157 143.135 57.0258C141.791 56.4911 137.536 52.3489 137.536 52.3489L136.507 53.288C137.586 54.4886 138.763 55.6004 140.025 56.6124C141.454 57.7358 143.182 58.4244 145.001 58.5939M147.952 51.5748C148.605 52.3835 149.641 53.8968 150.037 54.3079C150.892 55.1881 151.256 55.2879 151.912 55.3288C151.561 54.3534 151.081 53.4285 150.482 52.5785C149.796 51.4719 149.026 50.4187 148.177 49.428C148.182 49.5801 148.161 49.7319 148.115 49.8773C148.1 49.911 148.085 49.942 148.07 49.973C148.011 50.0752 147.931 50.1641 147.835 50.2341C147.686 50.3307 147.509 50.3759 147.332 50.3626C147.166 50.3509 147.01 50.2792 146.894 50.1613C146.784 50.1705 146.673 50.1432 146.58 50.0835C146.604 50.2047 146.602 50.3296 146.573 50.4498C146.545 50.5701 146.49 50.6828 146.413 50.7804C146.42 51.1008 146.297 51.4106 146.072 51.6417C146.086 51.6639 146.101 51.6852 146.118 51.7055C146.332 52.0848 146.238 52.2721 146.137 52.3907C146.046 52.4932 145.01 53.6313 144.779 53.8357C144.697 53.9007 144.593 53.9333 144.488 53.9273C144.383 53.9212 144.284 53.8769 144.211 53.8029L144.04 53.6627C144.04 53.6627 143.775 53.9274 143.564 54.1376C143.583 54.1547 143.6 54.1704 143.618 54.1875C143.963 54.486 144.356 54.7247 144.782 54.8934C145.155 55.0515 146.257 55.4559 146.996 55.7538C146.82 55.2146 146.614 54.6009 146.401 53.9952C146.589 54.2522 147.124 55.1832 147.581 56.0045C147.55 55.9906 147.637 56.0292 147.608 56.0175C148.286 56.3183 148.946 56.6567 149.585 57.0312C149.539 56.8249 149.494 56.6888 149.494 56.6888C149.163 56.3496 148.856 55.9885 148.574 55.6082C147.939 54.707 147.439 53.719 147.093 52.6756C147.946 53.9489 148.167 54.3057 148.504 54.7527C149.581 56.1838 150.731 56.8061 151.174 56.816C151.018 56.0202 150.733 55.8441 150.733 55.8441C150.324 55.4817 149.954 55.0782 149.631 54.64C149.767 54.8242 149.895 54.9994 149.601 54.6013C149.382 54.3034 149.467 54.4216 149.583 54.5775C148.923 53.6435 148.375 52.6364 147.952 51.5766M146.925 45.9566L147.611 46.1337C147.713 46.1647 147.825 46.1894 147.942 46.2154C148.059 45.8992 148.114 45.5637 148.104 45.227C148.089 44.8505 148.96 45.643 149.539 46.2177C149.782 46.4608 149.827 46.3552 149.688 46.1669C149.104 45.4847 148.411 44.9017 147.636 44.4411C147.083 44.1015 146.804 44.1832 146.995 44.4861C147.095 44.7213 147.14 44.9756 147.128 45.2303C147.116 45.4851 147.046 45.734 146.925 45.9589M145.868 39.076C145.866 39.063 145.867 39.0498 145.87 39.0371C145.873 39.0244 145.879 39.0126 145.887 39.0023C145.893 38.9968 145.9 38.9921 145.907 38.9883C145.915 38.9859 145.923 38.984 145.932 38.9825C145.977 38.9825 146.029 39.0135 146.131 39.076C146.186 39.1088 146.257 39.1537 146.339 39.2004C146.223 38.8461 146.165 38.4756 146.168 38.1032C146.162 37.6441 146.101 37.1872 145.986 36.7422C145.986 36.7481 145.958 36.6973 145.952 36.6816C145.854 36.9144 145.72 37.1304 145.554 37.3219C145.288 37.6134 145.102 37.9675 145.014 38.3503L145 38.4321L144.938 38.3741C145.058 38.4865 144.605 37.9729 144.599 37.9639C144.422 38.6212 143.282 40.037 143.017 40.3318C142.982 40.3807 142.545 41.021 142.376 42.6102C142.273 43.4146 142.273 44.2285 142.376 45.0329L142.782 44.5997C142.789 44.8997 142.778 45.1998 142.748 45.4984C142.724 45.7267 142.67 45.951 142.587 46.1656C142.856 46.1909 143.127 46.1486 143.376 46.0426C143.624 45.9366 143.841 45.7704 144.007 45.5595L144.117 45.847C144.219 46.1377 144.294 46.476 144.064 46.6526C144.029 46.6796 143.644 47.0121 143.693 47.3405C143.706 47.4067 143.732 47.4696 143.771 47.5251C143.81 47.5805 143.86 47.6272 143.918 47.6622L143.933 47.6721V47.691C143.941 47.7621 143.969 47.8296 144.012 47.887C144.056 47.9443 144.114 47.9893 144.181 48.0176C144.152 47.9156 144.155 47.8076 144.189 47.7072C144.213 47.6313 144.259 47.5644 144.322 47.515C144.385 47.4657 144.462 47.4362 144.542 47.4304C144.605 47.4276 144.667 47.435 144.727 47.4524C144.727 47.4524 144.824 48.3663 144.904 48.7397C144.996 49.1451 145.066 49.5554 145.112 49.9685C145.122 50.0719 145.134 50.1765 145.146 50.283C145.181 50.5917 145.365 50.6205 145.529 50.6465C145.66 50.6542 145.791 50.6515 145.921 50.6384L145.936 50.6443L145.913 50.6542C145.674 50.718 145.693 50.8137 145.698 50.8442C145.767 51.0378 145.775 51.2475 145.72 51.4454L145.754 51.4782C145.893 51.3978 146 51.2735 146.058 51.1256C146.117 50.9776 146.123 50.8145 146.076 50.6627L146.072 50.638L146.094 50.6241C146.37 50.4668 146.302 49.9222 145.908 49.0937C145.723 48.7055 145.646 48.0554 145.766 47.9934C145.774 47.9912 145.781 47.9885 145.788 47.9853C145.85 47.9731 145.928 47.9812 146.116 48.2522C146.243 48.4382 146.373 48.5959 146.538 48.7976C146.682 48.9402 146.773 49.126 146.797 49.3256C146.798 49.3488 146.794 49.372 146.786 49.3938C146.778 49.4156 146.765 49.4353 146.748 49.4518C146.713 49.474 146.671 49.4862 146.629 49.4869C146.543 49.4897 146.457 49.4845 146.373 49.4711C146.464 49.561 146.794 49.938 146.895 49.8216C147.146 49.5376 146.919 49.9977 147.358 50.0427C147.427 50.0472 147.495 50.0369 147.559 50.0126C147.623 49.9883 147.681 49.9505 147.729 49.9019C147.777 49.8532 147.813 49.7949 147.835 49.731C147.858 49.6671 147.866 49.5991 147.859 49.5318C147.857 49.4297 147.845 49.328 147.824 49.2281C147.749 48.9397 147.599 48.6756 147.39 48.4615L147.294 48.3591C146.558 47.5575 146.62 47.3814 146.666 47.3028C146.737 47.1783 146.803 47.1415 146.997 47.1374C147.204 47.1368 147.411 47.15 147.616 47.177C147.914 47.2318 148.404 47.3073 148.39 47.4659C148.384 47.4847 148.374 47.502 148.36 47.5166C148.347 47.5312 148.33 47.5427 148.312 47.5503C148.21 47.5912 148.039 47.6519 148.015 47.6132C148.091 47.697 148.186 47.7621 148.292 47.8033C148.417 47.8599 148.923 48.0046 149.079 47.7705L149.131 47.6658C149.222 47.6658 149.467 47.6272 149.518 47.4596C149.566 47.3032 149.36 47.088 149.147 46.9824C148.792 46.8226 148.427 46.6875 148.054 46.578C147.887 46.5291 147.68 46.4882 147.525 46.4455L146.638 46.2163C146.616 46.2083 146.153 46.0622 145.98 45.9863C145.893 45.9477 145.826 45.9185 145.788 45.8964C145.64 45.8216 145.512 45.7139 145.413 45.5819C145.277 45.3021 145.176 45.0068 145.113 44.7026C145.327 44.8407 145.566 44.9364 145.817 44.9843C145.781 44.7234 145.771 44.4595 145.789 44.1967C145.925 42.7517 145.956 41.9237 145.956 41.9237C145.956 41.9237 146.21 42.1784 146.25 42.2233C146.258 41.7354 146.228 41.2476 146.159 40.7644C146.158 40.7598 146.158 40.7552 146.159 40.7505C146.096 40.1881 146 39.6298 145.87 39.0786M149.54 27.7907C149.662 27.2423 149.681 26.6762 149.595 26.1211C149.272 26.9591 149.123 27.8527 149.158 28.7486C149.31 28.4396 149.438 28.1193 149.54 27.7907ZM148.156 30.7422C148.532 29.6653 148.742 28.539 148.78 27.4007C148.42 27.797 148.111 29.2837 148.156 30.7422ZM146.86 29.4985C147.368 27.9969 146.94 27.238 146.647 27.0839C146.635 27.7741 146.824 28.0985 146.86 29.4985ZM146.56 36.0175C146.726 33.8723 147.117 31.7499 147.728 29.6845C146.126 31.4031 146.359 35.3939 146.56 36.0175ZM153.745 35.0317C153.63 35.7373 153.664 36.4587 153.845 37.1507C154.251 36.6276 154.552 36.0329 154.731 35.3984C154.739 35.9823 154.855 36.5598 155.074 37.1021C155.565 36.4012 155.841 33.589 155.841 33.589C155.841 33.589 155.857 33.6569 156.107 33.7445C156.37 32.7389 156.224 30.6757 156.008 29.7047C155.524 27.3842 154.429 25.2304 152.834 23.4594C151.745 22.1928 150.824 22.7652 149.903 23.7559C148.42 25.3492 148.102 26.055 146.327 26.3767H146.319C146.142 26.4086 146.274 26.4944 146.623 26.4881C148.763 26.4522 149.433 25.0535 150.073 24.3521C150.498 23.8871 151.046 23.4661 151.504 23.7298C151.676 23.8282 152.258 24.4995 151.656 26.1503C151.66 25.8718 151.583 25.5979 151.435 25.3608C151.204 26.3164 150.833 27.2338 150.335 28.0841C150.275 27.893 150.229 27.6978 150.198 27.5C149.988 28.8371 148.775 30.2264 148.6 32.1359C148.425 31.894 148.339 31.6002 148.356 31.3034C147.442 32.9694 146.493 35.9582 147.082 37.4589C147.057 35.9312 148.007 33.7418 148.497 33.0467C147.87 35.0034 147.139 37.4288 147.769 38.8877C147.919 37.4391 148.358 36.0342 149.061 34.7541C148.196 37.9733 147.836 39.6151 148.802 40.8557C148.635 39.652 149.132 37.8215 149.81 36.3253C149.36 38.8387 148.717 41.0309 149.904 42.1335C149.84 40.5595 150.116 38.99 150.714 37.5294C150.325 39.9557 149.986 42.2961 150.779 43.4648C150.801 42.6147 150.91 41.769 151.104 40.9406C151.312 39.8802 151.628 38.8616 151.628 38.8616C151.628 38.8616 151.379 40.5573 151.245 42.6205C151.223 42.9652 151.213 43.3156 151.221 43.6589C151.225 44.084 151.267 44.508 151.349 44.9255C151.41 45.2903 151.535 45.6418 151.719 45.9638C151.937 43.2258 152.257 40.8588 152.629 39.7634C152.629 39.7634 152.311 42.3244 152.103 46.2496C152.095 46.3911 152.089 46.5273 152.083 46.6657C151.822 52.3013 152.594 54.1075 152.834 54.6463C152.774 54.3738 152.748 54.0947 152.76 53.8159C152.731 53.3962 152.746 52.9746 152.805 52.5579C152.827 52.3579 152.297 51.3232 152.371 49.9281C152.417 49.0897 152.474 48.2562 152.545 47.443C152.607 46.7021 152.679 45.9764 152.758 45.2863C152.846 44.6541 152.905 44.0516 152.996 43.4073C153.123 42.497 153.304 41.5952 153.47 40.689C153.601 39.9732 153.528 40.6031 153.516 40.7748C153.449 41.5871 153.299 43.3605 153.152 45.1888C153.054 46.5529 152.746 49.2523 152.81 50.5549C152.856 51.1678 152.984 51.7721 153.19 52.3521C153.125 54.5497 153.347 55.4397 153.736 56.2642C153.736 56.2642 153.964 55.4806 154.143 54.4966C154.093 54.5852 154.014 54.6543 153.919 54.693C153.584 53.6422 153.503 52.5291 153.681 51.4418C153.714 51.2117 153.369 50.9201 153.394 49.8854C153.466 48.2658 153.62 46.6507 153.855 45.0463C153.927 44.5099 154.003 43.986 154.079 43.4922C154.129 43.1777 154.176 42.8569 154.229 42.5392C154.299 42.0306 154.394 41.5206 154.504 41.017C154.522 40.9352 154.537 40.8557 154.554 40.7878C154.554 40.7928 154.54 41.1594 154.501 41.6491C154.321 43.817 153.825 49.3602 153.818 49.7991C153.821 50.3454 153.908 50.8881 154.078 51.4081C154.002 52.2706 154.026 53.1389 154.149 53.9961C154.229 53.6962 154.285 53.3907 154.317 53.0822C154.317 53.0822 154.63 50.8357 154.99 47.6348C155.046 47.143 155.1 46.6504 155.153 46.157C155.201 45.6938 155.25 45.2202 155.3 44.7309C155.353 44.1612 155.412 43.5919 155.463 43.0236C155.488 42.7787 155.509 42.5316 155.531 42.2827C155.664 40.777 155.819 39.0773 155.947 37.578C155.947 37.5739 156.151 35.1396 156.198 34.4067L156.076 34.3169C156.076 34.3169 155.796 37.3272 154.983 38.3854C154.698 37.861 154.538 37.2788 154.518 36.6838C154.293 37.1991 153.981 37.6728 153.596 38.0848C153.417 37.5776 153.341 37.0407 153.372 36.5046C153.169 36.8455 152.88 37.1291 152.533 37.3281C152.284 36.811 152.174 36.2395 152.214 35.6684C152.024 35.9043 151.789 36.1025 151.524 36.2525C151.427 36.0247 150.879 35.1742 151.865 32.029C151.473 34.9333 151.707 35.2703 151.784 35.5053C151.948 35.4295 152.1 35.3323 152.237 35.2164C152.296 34.5201 152.397 33.8278 152.539 33.1433C152.393 35.4545 152.577 36.1793 152.758 36.6254C152.99 36.4641 153.315 36.0359 153.745 35.0331M160.217 14.994C159.195 15.2227 158.147 15.3201 157.1 15.2838C156.608 16.2207 156.372 17.2684 156.417 18.3229C155.923 18.2132 155.471 17.9633 155.119 17.604C154.675 18.1881 154.428 18.5071 153.962 19.1164C156.648 23.926 158.075 29.3213 158.113 34.8129C160.089 33.7171 161.959 32.4452 163.7 31.0131C163.32 24.3634 162.279 19.3424 160.219 14.9949M161.375 55.2897C160.013 58.0061 157.886 60.2774 155.25 61.8316C151.39 64.2493 147.37 63.6697 146.06 62.9189C146.06 62.9189 146.163 63.1696 146.201 63.2536C146.238 63.3377 146.295 63.4868 146.327 63.5682C146.843 64.9421 146.493 66.3682 144.606 66.5785C144.019 66.6021 143.44 66.73 142.898 66.9559C142.324 67.2371 141.806 67.6194 141.371 68.0841C140.994 68.491 140.67 68.9422 140.405 69.4276C140.141 68.942 139.817 68.4907 139.439 68.0841C139.004 67.6192 138.487 67.2368 137.912 66.9559C137.37 66.73 136.792 66.6021 136.204 66.5785C134.317 66.3664 133.973 64.9376 134.488 63.5605C134.517 63.485 134.571 63.3444 134.61 63.2568L134.749 62.9185C133.793 63.4671 131.42 63.8894 128.66 63.1485L128.39 63.078C126.195 62.5114 124.182 61.4056 122.538 59.8636C121.115 58.5199 119.925 56.9547 119.015 55.2304C115.347 47.7377 115.861 36.6254 115.849 35.4384C115.723 22.6048 118.605 15.4078 121.076 11.9288C120.333 10.9587 119.879 10.3715 119.847 10.3387C119.436 9.91456 118.885 9.64847 118.293 9.58789C118.087 8.34336 117.793 7.11442 117.415 5.90986C118.452 6.63579 119.554 7.26741 120.708 7.79695C120.589 8.37393 120.703 8.97398 121.026 9.46883C121.055 9.51376 121.414 9.98059 122.006 10.7552C123.128 9.37292 124.518 8.22623 126.096 7.38269C126.536 7.13692 127.007 6.89789 127.517 6.67054C127.496 6.34362 127.545 6.01608 127.658 5.70844C127.772 5.40081 127.949 5.1197 128.178 4.88274C128.203 4.65918 128.287 4.44583 128.42 4.26357C128.554 4.08132 128.733 3.93641 128.94 3.84304H128.943C129.184 3.80207 129.431 3.81421 129.667 3.87861C129.903 3.943 130.121 4.05806 130.306 4.21552C131.017 4.32242 131.668 4.67225 132.144 5.204C133.852 4.85392 135.583 4.6294 137.325 4.53228C137.427 4.10195 137.625 3.69938 137.904 3.35362C138.183 3.00786 138.536 2.72753 138.938 2.53286C139.067 2.3038 139.249 2.10776 139.469 1.96045C139.688 1.81314 139.94 1.71865 140.203 1.68457H140.209C140.472 1.7183 140.724 1.81266 140.943 1.96002C141.163 2.10738 141.344 2.30361 141.472 2.53286C141.875 2.7273 142.229 3.00751 142.508 3.35327C142.788 3.69904 142.986 4.10173 143.088 4.53228C144.83 4.62876 146.562 4.85269 148.269 5.2022C148.746 4.67061 149.397 4.32082 150.108 4.21372C150.293 4.05648 150.511 3.94156 150.747 3.87717C150.983 3.81279 151.23 3.80052 151.471 3.84125C151.678 3.93493 151.857 4.08003 151.991 4.26239C152.125 4.44475 152.208 4.65817 152.233 4.88184C152.464 5.11878 152.642 5.40017 152.756 5.70832C152.871 6.01646 152.92 6.34468 152.899 6.67233C153.407 6.89923 153.879 7.13827 154.318 7.38449C155.904 8.27031 157.316 9.42819 158.49 10.8037C159.145 9.95003 159.54 9.42884 159.572 9.38391C159.895 8.88906 160.01 8.28901 159.89 7.71203C161.043 7.18271 162.145 6.55108 163.182 5.82494C162.805 7.02975 162.511 8.25863 162.304 9.50297C161.712 9.56376 161.162 9.82983 160.751 10.2538C160.715 10.2888 160.198 10.9596 159.359 12.0541C161.817 15.5587 164.658 22.6946 164.535 35.4406C164.551 36.4601 165.041 47.7934 161.373 55.2865M132.384 11.5851C132.619 11.6866 132.794 11.7648 133.045 11.8726C133.223 11.6614 133.302 11.5608 133.504 11.3361C133.25 11.2274 133.082 11.147 132.821 11.0454C132.664 11.2139 132.497 11.4408 132.386 11.5846M145.042 9.21182C144.913 9.28494 144.808 9.39441 144.742 9.52634C144.833 9.66472 145.012 9.72268 145.283 9.76043C145.32 9.76627 145.388 9.77031 145.429 9.77346C145.557 9.48365 145.287 9.12421 145.042 9.21002M150.645 10.7008C150.514 11.014 150.32 11.2979 150.075 11.5352C148.697 11.0555 147.274 10.7153 145.826 10.5198C145.492 10.9361 145.048 11.2537 144.543 11.4377C143.955 11.3632 143.382 11.1996 142.845 10.9529C143.033 10.9677 143.221 10.9713 143.409 10.9637C144.05 10.9467 144.675 10.7658 145.224 10.4389C144.21 10.2875 143.972 10.0138 144.462 9.37447C144.686 9.08557 145.057 8.56077 145.597 8.69736C146.017 8.80475 146.122 9.39649 146.074 9.84265C147.385 10.0337 148.676 10.3468 149.928 10.7777C150.004 10.451 149.791 10.2897 149.655 10.0529C149.849 9.85721 150.062 9.68138 150.292 9.52813C150.451 9.67537 150.567 9.86158 150.629 10.0677C150.691 10.2738 150.696 10.4925 150.644 10.7013M145.989 11.2364C146.162 11.4058 146.288 11.537 146.475 11.7172C146.732 11.5788 146.85 11.5118 147.134 11.3685C146.947 11.1852 146.827 11.0567 146.626 10.8765C146.41 10.9821 146.155 11.1376 145.988 11.236M151.199 10.992C150.974 11.5087 150.778 12.0317 150.516 12.5003C150.671 12.5632 150.88 12.4325 151.029 12.343C151.717 11.9279 152.213 10.7799 152.483 10.0965C152.27 10.1265 152.063 10.1855 151.866 10.2717C151.457 10.4515 151.386 10.5584 151.198 10.9906M151.516 9.97115C152.074 9.92622 152.587 10.061 152.825 9.80491C152.524 9.75892 152.241 9.63487 152.005 9.44546C152.156 9.32505 152.366 9.49039 152.477 9.58025C152.553 9.50657 152.593 9.47467 152.683 9.39289C152.604 9.3315 152.514 9.28719 152.416 9.26285C152.319 9.23851 152.218 9.2347 152.119 9.25167C152.02 9.26863 151.926 9.30598 151.843 9.36129C151.76 9.41659 151.689 9.48861 151.636 9.57261C151.75 9.6162 151.857 9.67682 151.952 9.75234C151.799 9.80829 151.653 9.88189 151.518 9.9716M130.758 12.0384C130.596 11.9876 130.449 11.9418 130.257 11.8901C130.127 12.0735 129.991 12.3165 129.904 12.4706C130.15 12.5475 130.334 12.6081 130.6 12.6868C130.704 12.5246 130.768 12.4221 130.856 12.2873C131.016 12.3372 131.161 12.3848 131.35 12.4405C131.496 12.2127 131.562 12.104 131.729 11.86C131.462 11.7783 131.283 11.7167 131.008 11.643C130.921 11.7643 130.834 11.909 130.759 12.0384M142.476 9.03839C142.126 8.47181 140.823 8.98267 139.995 9.321C140.477 9.31606 140.884 9.29989 141.397 9.31112C141.602 9.31516 142.141 9.31831 142.503 9.33089C142.525 9.28389 142.534 9.2322 142.529 9.18086C142.524 9.12952 142.506 9.08028 142.476 9.03794M143.056 10.0835C140.246 9.92892 134.753 10.2183 132.054 10.9515C131.921 10.6167 131.744 10.3005 131.528 10.0107C130.809 9.25091 130.515 10.0754 130.511 10.172C131.416 10.2228 131.572 10.682 131.572 10.682C131.37 11.0438 131.066 11.3403 130.697 11.5356C130.237 11.8363 129.708 12.0187 129.159 12.0663C127.458 12.1471 127.921 10.4016 128.953 9.68854C128.819 9.84579 128.211 10.7601 128.589 11.2288C129.013 11.7513 130.58 11.3245 130.961 10.8545C130.792 10.7468 130.604 10.6735 130.407 10.6389C130.209 10.6044 130.007 10.6092 129.812 10.6532C129.853 10.3257 129.961 10.0097 130.127 9.72352C130.294 9.4373 130.516 9.18655 130.782 8.98582C131.086 9.08478 131.368 9.24241 131.61 9.44958C131.852 9.65674 132.05 9.90932 132.193 10.1927C134.674 9.53532 139.223 9.34931 139.441 9.33897C139.389 8.91483 139.239 7.3108 139.23 7.2133C139.208 6.94956 139.385 6.83004 139.558 6.72445C139.637 6.87729 139.748 7.01218 139.883 7.12049C140.017 7.2288 140.174 7.30816 140.341 7.35348C140.19 7.51227 140.021 7.65324 139.837 7.77359C139.862 8.09439 139.892 8.68164 139.902 8.91663C140.435 8.67767 140.99 8.48771 141.558 8.34915C141.803 8.28925 142.056 8.26637 142.308 8.2813C142.549 8.31265 142.777 8.40714 142.968 8.55493C143.046 8.61775 143.111 8.69579 143.157 8.78421C143.204 8.87263 143.231 8.96955 143.238 9.06894C143.241 9.41557 143.179 9.75976 143.056 10.0844M138.301 18.3521C138.256 18.3274 137.937 18.3301 137.902 18.397C137.866 18.464 138.095 18.5633 138.172 18.5893C138.201 18.5959 138.232 18.5922 138.258 18.5789C138.285 18.5656 138.306 18.5436 138.318 18.5165C138.354 18.4509 138.346 18.379 138.301 18.3543M138.488 18.3462C138.541 18.4622 138.557 18.5914 138.533 18.7165C138.525 18.8465 138.472 18.9698 138.383 19.0663C138.294 19.1628 138.175 19.2269 138.045 19.248C137.959 19.2727 137.868 19.2781 137.779 19.2638C137.69 19.2494 137.606 19.2157 137.532 19.1651C137.458 19.1144 137.397 19.0482 137.352 18.9711C137.308 18.894 137.281 18.8081 137.274 18.7196C137.271 18.6108 137.295 18.5029 137.344 18.4051C137.219 18.4199 137.215 18.5057 137.094 18.6558C137.021 18.7457 136.902 18.7385 136.729 18.8499C136.754 18.6992 136.816 18.5567 136.908 18.4343C137.001 18.3119 137.122 18.2133 137.261 18.1468C138.221 17.9057 139.235 18.0036 140.129 18.4235C139.795 18.3814 139.458 18.3615 139.121 18.3638C138.709 18.3418 138.488 18.344 138.488 18.344M142.14 7.30451C141.923 7.14725 141.782 7.03493 141.555 6.88126C141.357 7.01291 141.131 7.19892 140.984 7.31529C141.184 7.46267 141.331 7.57634 141.545 7.73135C141.778 7.56286 141.882 7.48154 142.14 7.30406M136.175 18.8369C136.114 18.8755 136.059 19.0669 136.281 19.0737C136.467 19.0809 136.502 18.8755 136.502 18.8755C136.502 18.8755 136.268 18.7798 136.175 18.8369ZM142.337 20.5128C142.234 20.321 142.086 20.156 141.906 20.0311C141.726 19.9062 141.518 19.8249 141.3 19.7939C141.453 19.9738 141.577 20.1756 141.668 20.3924C141.468 20.458 141.261 20.5008 141.051 20.52C141.251 20.6194 141.472 20.6705 141.696 20.6689C141.919 20.6674 142.139 20.6132 142.338 20.511M140.926 19.3329C140.615 18.9775 140.189 18.7393 139.72 18.659C139.845 18.8648 140.021 19.0352 140.233 19.1534C140.444 19.2716 140.683 19.3334 140.926 19.3329ZM140.571 18.6648C140.784 18.8769 141.466 19.1617 141.846 19.5122C141.794 18.9357 141.283 18.6248 140.571 18.6648ZM140.305 26.9132C140.086 27.2675 139.97 27.6742 139.969 28.089C139.969 28.5038 140.083 28.911 140.3 29.2662C140.296 29.2572 140.839 27.659 140.305 26.9132ZM141.607 31.5006C142.224 30.8199 142.566 29.9387 142.568 29.0249C142.288 29.502 141.938 29.935 141.528 30.3095C141.208 30.0854 140.92 29.8218 140.668 29.525C140.672 30.5845 141.617 31.5074 141.607 31.502M140.562 24.362C140.363 24.5231 140.227 24.7474 140.177 24.9964C140.127 25.2455 140.167 25.5039 140.289 25.7275C140.289 25.7167 141.14 24.8203 140.559 24.3625M141.554 21.5705C141.781 21.7974 142.507 21.9659 142.914 22.3401C142.895 22.191 142.842 22.0482 142.758 21.923C142.674 21.7978 142.561 21.6937 142.429 21.619C142.297 21.5443 142.149 21.501 141.997 21.4925C141.845 21.4841 141.693 21.5108 141.554 21.5705ZM142.64 23.4054C142.668 23.0822 142.565 22.7611 142.354 22.5125C142.143 22.264 141.84 22.1084 141.513 22.08C141.45 22.585 142.321 22.8946 142.64 23.4054ZM142.246 24.7826C141.786 25.2768 142.216 26.2505 142.479 27.1275C142.723 26.6984 143.015 25.2467 142.246 24.7826ZM144.69 27.0201C144.599 27.6367 144.323 28.2123 143.897 28.6722C143.61 28.4338 143.349 28.1656 143.118 27.8725C143.096 28.8434 143.938 29.7825 143.923 29.7762C143.917 29.7712 144.952 28.9607 144.69 27.0201ZM143.391 22.8694C143.291 23.4131 144.178 24.2358 144.174 24.2407C144.209 23.9596 144.152 23.6747 144.011 23.4279C143.87 23.1811 143.653 22.9854 143.391 22.8694ZM144.939 25.3945C144.855 26.029 145.603 27.4766 145.632 27.593C145.755 27.2003 145.754 26.7802 145.631 26.3878C145.507 25.9955 145.266 25.6492 144.939 25.3945ZM139.11 32.8715C139.591 32.1037 139.756 31.1837 139.572 30.2996C139.554 30.5802 139.479 30.8543 139.35 31.1049C139.22 31.3555 139.041 31.5775 138.822 31.7572C138.526 31.5558 138.297 31.2734 138.163 30.9448C138.155 31.317 138.237 31.6856 138.402 32.0205C138.567 32.3554 138.809 32.647 139.11 32.8715ZM138.442 25.2561C137.297 26.1044 137.841 26.8975 138.044 27.3333C138.276 26.663 138.409 25.9636 138.442 25.2561ZM137.871 27.8451C137.097 28.7931 138.288 29.977 138.28 29.9918C138.276 29.9829 138.377 28.1946 137.871 27.8451ZM135.011 31.5779C134.857 30.62 134.92 29.9788 134.443 29.1332C134.4 29.9843 134.596 30.8305 135.011 31.5779ZM135.994 26.6234C136.313 25.4961 136.956 24.85 137.178 24.1949C136.031 24.9964 135.795 26.228 135.994 26.6234ZM136.495 29.5398C136.504 30.024 136.463 30.5078 136.373 30.9839C136.097 30.8818 135.852 30.7117 135.661 30.4897C135.856 31.129 136.656 31.8659 136.783 32.051C136.896 31.183 136.931 30.1271 136.497 29.5407M135.688 31.6606C135.422 32.7838 136.563 33.8703 136.569 33.8869C136.547 33.0661 136.236 32.2786 135.688 31.6606ZM136.03 34.6808C136.304 35.1453 136.643 35.5689 137.038 35.9389C136.549 35.2061 136.158 33.8536 135.676 33.4884C135.69 33.9088 135.812 34.3189 136.03 34.6804M134.622 28.094C134.534 27.5382 135.23 27.0278 134.991 26.1345C134.736 26.3861 134.565 26.708 134.499 27.0578C134.433 27.4075 134.476 27.7688 134.622 28.094ZM138.719 35.7322C138.3 35.4545 137.945 35.0916 137.679 34.6678C137.94 35.4944 138.427 36.2338 139.087 36.8047C139.311 36.3684 139.443 35.8925 139.478 35.4048C139.512 34.9172 139.447 34.4277 139.287 33.9651C139.197 34.5814 139.005 35.1789 138.718 35.7336M141.75 32.889C141.577 33.5116 141.23 34.0736 140.748 34.511C140.443 34.2265 140.199 33.8846 140.029 33.5054C139.978 33.8915 140.035 34.284 140.195 34.64C140.355 34.9959 140.611 35.3017 140.935 35.5237C141.252 35.1664 141.488 34.7468 141.629 34.2926C141.769 33.8385 141.811 33.3601 141.75 32.889ZM143.261 35.8513C143.955 35.0061 144.32 34.0311 144.018 33.0332C143.398 33.9871 143.381 34.958 143.261 35.8513ZM141.571 37.334C141.774 36.869 142.294 36.0036 142.185 34.9976C141.739 35.3768 141.53 36.7351 141.571 37.334ZM145.223 31.8812C145.537 31.3914 145.971 30.6833 145.614 30.2241C145.447 30.7673 145.316 31.3209 145.223 31.8812ZM142.918 33.4731C142.921 33.4623 144.09 32.361 144.05 30.9686C143.847 31.5319 143.445 32.0037 142.917 32.2968C142.611 32.0809 142.386 31.7725 142.274 31.4184C142.208 31.7868 142.231 32.1655 142.343 32.5229C142.455 32.8803 142.653 33.2061 142.918 33.4731ZM145.08 30.3347C145.072 30.3136 145.831 29.0317 145.404 28.3213C144.91 28.4278 145.093 30.3432 145.08 30.3347ZM145.043 32.5215C144.593 33.1217 144.464 34.4822 144.324 34.9369C144.486 34.7945 145.312 32.862 145.043 32.5215ZM139.825 39.0971C140.071 38.3562 140.012 37.462 139.693 37.0707C139.576 37.4 139.528 37.749 139.55 38.0971C139.573 38.4452 139.666 38.7852 139.825 39.0971ZM140.556 41.0246C140.807 40.3803 140.789 39.5738 140.511 39.2274C140.395 39.5144 140.339 39.8217 140.347 40.1306C140.355 40.4395 140.426 40.7436 140.556 41.0246ZM141.512 40.4041C141.979 39.6199 142.203 38.7177 142.155 37.8094C141.668 38.2901 141.463 39.7948 141.51 40.4041M138.515 39.217C138.402 38.8535 138.203 37.6328 137.731 37.1053C137.684 37.4933 137.731 37.8867 137.867 38.2536C138.003 38.6205 138.225 38.9506 138.515 39.217ZM144.388 40.2832C144.389 40.113 144.346 39.9452 144.263 39.7962C144.167 40.2383 143.573 41.1693 143.709 42.2485C143.976 41.2856 144.731 41.0857 144.927 40.1911C145.069 40.2869 145.234 40.3458 145.405 40.3623C145.2 39.8939 145.05 39.4038 144.958 38.9016C144.876 39.3991 144.68 39.8717 144.386 40.2837M136.451 42.1838C136.585 41.1055 135.992 40.1723 135.897 39.7315C135.813 39.8801 135.77 40.0474 135.771 40.2172C135.477 39.8058 135.282 39.3338 135.199 38.8369C135.108 39.3379 134.959 39.827 134.754 40.2945C134.926 40.2799 135.09 40.2215 135.231 40.1251C135.428 41.0201 136.183 41.2182 136.45 42.1834M130.5 32.1031C130.28 32.043 130.082 31.922 129.929 31.7545C129.994 31.9841 130.105 32.1986 130.255 32.3853C130.405 32.5719 130.592 32.7268 130.804 32.8409C130.804 32.8409 131.385 31.4638 130.058 29.4904C130.783 31.5667 130.5 32.1031 130.5 32.1031ZM129.712 34.1731C129.508 34.0843 129.331 33.945 129.197 33.7687C129.235 34.0089 129.329 34.2371 129.471 34.4357C129.613 34.6343 129.8 34.798 130.016 34.914C130.278 34.0855 130.438 33.4273 129.255 30.9947C130.066 33.3814 129.715 34.1731 129.715 34.1731M124.865 33.0161C124.582 32.4195 124.443 31.7661 124.459 31.1075C124.258 31.9011 124.356 32.74 124.736 33.4672C124.848 33.3903 124.941 33.2885 125.006 33.1699C125.072 33.0513 125.109 32.9193 125.113 32.7843C125.047 32.8769 124.962 32.9557 124.865 33.0161ZM125.598 32.3053C125.598 32.3053 125.242 31.7617 125.1 30.1846C124.908 31.0945 125.057 32.0424 125.522 32.8512C125.645 32.7595 125.746 32.6404 125.814 32.5034C125.883 32.3665 125.918 32.2155 125.917 32.0627C125.872 32.1773 125.599 32.3058 125.599 32.3058M128.808 28.1048C128.486 27.7503 127.978 27.2187 127.462 25.3137C127.519 26.9357 128.347 28.4444 128.95 28.9562C129.239 28.5469 129.293 27.3441 128.883 26.4607C128.93 27.0096 128.905 27.5621 128.809 28.1048M127.959 29.4392C127.67 29.06 127.114 28.2404 126.789 26.3026C126.727 27.7114 127.164 29.0975 128.024 30.2237C128.354 29.8404 128.449 29.0847 128.13 28.1735C128.152 28.6022 128.094 29.0312 127.959 29.4392ZM127.151 30.4488C126.886 30.0507 126.511 29.5147 126.175 27.1738C126.095 29.3049 126.665 30.5701 127.182 31.1645C127.343 30.9645 127.456 30.7317 127.514 30.483C127.573 30.2343 127.574 29.976 127.518 29.7268C127.446 29.9881 127.321 30.2325 127.151 30.4457M126.37 31.4552C126.146 31.0918 125.973 30.6618 125.756 28.5684C125.607 30.4614 125.919 31.6215 126.361 32.1661C126.512 31.9944 126.623 31.7914 126.684 31.572C126.745 31.3527 126.756 31.1225 126.715 30.8986C126.644 31.1072 126.526 31.2974 126.37 31.4552ZM155.296 32.7133C155.301 32.8482 155.337 32.9801 155.402 33.0987C155.468 33.2172 155.56 33.3191 155.672 33.3963C156.053 32.669 156.152 31.8297 155.951 31.0356C155.966 31.6957 155.825 32.3501 155.54 32.9474C155.54 32.9474 155.335 32.8157 155.292 32.7165M154.486 31.9944C154.485 32.1472 154.521 32.298 154.589 32.4349C154.658 32.5718 154.759 32.6909 154.882 32.7829C155.346 31.9738 155.497 31.0258 155.305 30.1154C155.162 31.6925 154.807 32.2361 154.807 32.2361C154.807 32.2361 154.531 32.109 154.486 31.9944ZM151.597 28.0365C151.501 27.4939 151.476 26.9413 151.522 26.3924C151.112 27.2744 151.165 28.4777 151.458 28.8866C152.058 28.3757 152.886 26.8647 152.943 25.2472C152.427 27.1518 151.921 27.6838 151.597 28.0383M152.448 29.3727C152.312 28.9647 152.253 28.5352 152.277 28.1061C151.958 29.0182 152.052 29.7739 152.381 30.1563C153.241 29.0302 153.678 27.644 153.616 26.2352C153.291 28.1739 152.734 28.9921 152.448 29.3727ZM154.232 27.1064C153.895 29.4473 153.519 29.982 153.255 30.3823C153.085 30.1693 152.96 29.9248 152.887 29.6634C152.832 29.9127 152.834 30.1708 152.892 30.4194C152.95 30.6679 153.063 30.9008 153.223 31.1012C153.741 30.5068 154.311 29.2402 154.232 27.1095M154.649 28.5087C154.433 30.6016 154.26 31.0306 154.035 31.3941C153.88 31.2359 153.762 31.0458 153.69 30.8374C153.649 31.0614 153.66 31.2914 153.722 31.5107C153.783 31.73 153.893 31.933 154.044 32.1049C154.487 31.5604 154.799 30.4003 154.649 28.5105M149.902 32.0353C149.902 32.0353 149.618 31.4961 150.344 29.4217C149.017 31.3964 149.598 32.7731 149.598 32.7731C149.811 32.6589 149.998 32.5038 150.148 32.3171C150.298 32.1303 150.409 31.9156 150.474 31.6857C150.321 31.8531 150.122 31.9743 149.902 32.0353ZM151.205 33.7013C151.167 33.9412 151.073 34.1692 150.931 34.3675C150.789 34.5658 150.602 34.7293 150.386 34.8453C150.124 34.0167 149.965 33.3599 151.148 30.9273C150.336 33.314 150.69 34.1057 150.69 34.1057C150.893 34.0164 151.07 33.8772 151.204 33.7013" fill="white"></path></g></g></g><defs><clipPath id="clip0_1120_24209"><rect width="168.904" height="69.6427" fill="white" transform="translate(0.172363 0.678711)"></rect></clipPath></defs></svg>