<svg xmlns="http://www.w3.org/2000/svg" width="136" height="36" viewBox="0 0 136 36" fill="none"><g clip-path="url(#clip0_1112_24139)"><path fill-rule="evenodd" clip-rule="evenodd" d="M18.1353 33.997C27.1513 33.997 34.4576 26.79 34.4576 17.9003C34.4576 9.01067 27.1513 1.80371 18.1353 1.80371C9.11934 1.80371 1.81 9.01067 1.81 17.9003C1.81 26.79 9.11934 33.997 18.1353 33.997ZM9.09236 17.0547C9.11336 23.1172 13.7803 26.8909 18.2643 26.8759C23.801 26.8582 27.0762 22.3748 27.0642 18.2819C27.0492 14.1919 24.7937 11.2346 19.8238 10.0399C19.8119 9.98956 19.8029 9.88013 19.8029 9.77669C19.7939 6.68628 22.1574 3.95965 25.1267 3.3534C24.8478 3.25876 24.3889 3.22333 23.951 3.22333C20.5558 3.23516 16.8096 4.66947 14.0742 6.89928C11.2729 9.18824 9.07735 13.0475 9.09236 17.0547Z" fill="white"></path><path d="M45.0002 24.5657L40.0093 12.8223H43.2696L46.3829 20.6207L49.4002 12.8223H52.5135L47.6696 24.5657H45.0002Z" fill="white"></path><path d="M61.1996 18.6341C61.1996 18.1461 61.1426 17.6818 61.0256 17.2412C60.9116 16.8006 60.7377 16.422 60.5067 16.1056C60.2758 15.7862 59.9968 15.5348 59.6669 15.3485C59.337 15.1592 58.9501 15.0646 58.5062 15.0646C58.0623 15.0646 57.6723 15.1592 57.3454 15.3485C57.0155 15.5348 56.7336 15.7862 56.5056 16.1056C56.2747 16.422 56.1007 16.8006 55.9867 17.2412C55.8698 17.6818 55.8128 18.1461 55.8128 18.6341C55.8128 19.1398 55.8697 19.61 55.9867 20.0417C56.1007 20.4735 56.2687 20.8521 56.4906 21.1774C56.7126 21.5027 56.9945 21.7599 57.3334 21.9492C57.6694 22.1355 58.0623 22.2302 58.5062 22.2302C58.9501 22.2302 59.337 22.1355 59.6669 21.9492C59.9968 21.7599 60.2758 21.5027 60.5067 21.1774C60.7377 20.8521 60.9116 20.4735 61.0256 20.0417C61.1426 19.61 61.1996 19.1398 61.1996 18.6341ZM64.2139 18.647C64.2139 19.4129 64.0939 20.164 63.8569 20.9034C63.617 21.6427 63.2631 22.3022 62.7922 22.8877C62.3243 23.4733 61.7304 23.9435 61.0136 24.3013C60.2968 24.6592 59.4599 24.8366 58.5062 24.8366C57.5494 24.8366 56.7126 24.6591 55.9987 24.3013C55.2819 23.9435 54.688 23.4733 54.2171 22.8877C53.7492 22.3022 53.3953 21.6427 53.1554 20.9034C52.9184 20.1641 52.7985 19.4129 52.7985 18.647C52.7985 17.884 52.9184 17.1387 53.1554 16.4053C53.3953 15.6748 53.7492 15.0213 54.2171 14.4446C54.688 13.8679 55.2819 13.4066 55.9987 13.0576C56.7126 12.7087 57.5494 12.5312 58.5062 12.5312C59.4599 12.5312 60.2938 12.7087 61.0016 13.0576C61.7094 13.4066 62.3033 13.8679 62.7802 14.4446C63.2601 15.0213 63.617 15.6748 63.8569 16.4053C64.0939 17.1387 64.2139 17.884 64.2139 18.647Z" fill="white"></path><path d="M73.4188 15.4071C72.8279 15.1793 72.279 15.064 71.7691 15.064C71.2472 15.064 70.7943 15.1647 70.4194 15.3597C70.0415 15.5548 69.7296 15.8181 69.4837 16.1523C69.2377 16.4865 69.0547 16.862 68.9318 17.279C68.8088 17.6931 68.7458 18.1219 68.7458 18.5625C68.7458 19.0505 68.7998 19.5177 68.9078 19.9672C69.0128 20.4138 69.1777 20.8071 69.3997 21.1413C69.6186 21.4755 69.8976 21.7446 70.2335 21.9486C70.5694 22.1497 70.9683 22.2532 71.4272 22.2532C71.8051 22.2532 72.189 22.1498 72.5819 21.9486C72.9749 21.7445 73.2538 21.5021 73.4188 21.227L73.4188 15.4071ZM73.6647 24.5658L73.5417 23.6668C73.2628 23.9744 72.8939 24.2465 72.432 24.4801C71.9731 24.7167 71.4302 24.835 70.8063 24.835C69.9875 24.835 69.2617 24.6635 68.6408 24.3234C68.014 23.9833 67.4891 23.5278 67.0632 22.9601C66.6373 22.3923 66.3104 21.7328 66.0884 20.9846C65.8695 20.2393 65.7585 19.4586 65.7585 18.6453C65.7585 17.8824 65.8725 17.1341 66.1004 16.4037C66.3314 15.6732 66.6793 15.0197 67.1472 14.443C67.6181 13.8663 68.2029 13.405 68.9108 13.056C69.6156 12.707 70.4464 12.5296 71.3972 12.5296C72.0211 12.5296 72.6959 12.6448 73.4188 12.8697V8.31543H76.4811V24.5658H73.6647Z" fill="white"></path><path d="M85.1071 19.059C84.7772 19.0762 84.4352 19.1065 84.0873 19.1449C83.7394 19.1863 83.4095 19.2395 83.0946 19.3045C82.4287 19.4346 81.9698 19.6565 81.7119 19.9729C81.4569 20.2923 81.328 20.6353 81.328 21.0109C81.328 21.3983 81.4719 21.7118 81.7629 21.9484C82.0538 22.182 82.4617 22.3003 82.9926 22.3003C83.3915 22.3003 83.7784 22.2205 84.1503 22.0578C84.5222 21.8951 84.8432 21.6911 85.1071 21.4486V19.059ZM85.353 24.5567L85.2331 23.6784C84.9002 24.0392 84.4803 24.3231 83.9674 24.5271C83.4545 24.7312 82.8936 24.8347 82.2817 24.8347C81.7689 24.8347 81.274 24.7488 80.8061 24.5774C80.3322 24.4089 79.9153 24.1634 79.5524 23.8469C79.1895 23.5305 78.8955 23.1431 78.6736 22.6788C78.4486 22.2145 78.3376 21.6911 78.3376 21.1055C78.3376 20.5229 78.4516 20.0054 78.6856 19.5588C78.9165 19.1123 79.2284 18.7367 79.6273 18.4262C80.0233 18.1186 80.4792 17.8673 80.992 17.6721C81.5019 17.477 82.0418 17.329 82.6027 17.2314C82.9986 17.1516 83.4335 17.0924 83.9044 17.0509C84.3753 17.0095 84.7682 16.9741 85.0831 16.9415V16.77C85.0831 16.1194 84.9151 15.6581 84.5732 15.3801C84.2343 15.105 83.7664 14.9661 83.1725 14.9661C82.8246 14.9661 82.4917 15.0075 82.1768 15.0903C81.8618 15.1701 81.5829 15.2708 81.334 15.392C81.085 15.5162 80.8661 15.6374 80.6741 15.7587C80.4852 15.8799 80.3322 15.9893 80.2152 16.0869L79.2014 13.9695C79.3334 13.8542 79.5344 13.7181 79.8073 13.5555C80.0802 13.3928 80.4072 13.2331 80.7971 13.0793C81.184 12.9255 81.6189 12.7954 82.1048 12.689C82.5907 12.5825 83.1155 12.5293 83.6734 12.5293C84.3333 12.5293 84.9361 12.6152 85.479 12.7866C86.0219 12.9581 86.4928 13.2243 86.8887 13.591C87.2816 13.9547 87.5905 14.4161 87.8155 14.978C88.0374 15.5369 88.1484 16.2141 88.1484 17.0096V24.5567H85.353Z" fill="white"></path><path d="M97.6142 10.9948C97.5153 10.9476 97.3233 10.8766 97.0354 10.7878C96.7444 10.6991 96.3635 10.6547 95.8836 10.6547C95.4577 10.6547 95.0978 10.782 94.8099 11.0333C94.522 11.2846 94.378 11.6957 94.378 12.2635V12.8224H96.9484V15.2592H94.402V24.5659H91.3367V15.2592H89.756V12.8224H91.3367V12.1895C91.3367 11.4266 91.4357 10.7819 91.6336 10.2525C91.8316 9.72613 92.1075 9.29434 92.4614 8.96313C92.8153 8.62895 93.2322 8.3835 93.7091 8.22972C94.189 8.07585 94.7079 7.99902 95.2688 7.99902C96.0096 7.99902 96.6215 8.06705 97.1074 8.20611C97.5933 8.34517 97.8782 8.43679 97.9592 8.48707L97.6142 10.9948Z" fill="white"></path><path d="M105.967 18.6341C105.967 18.1461 105.907 17.6818 105.793 17.2412C105.679 16.8006 105.505 16.422 105.275 16.1056C105.044 15.7862 104.765 15.5348 104.435 15.3485C104.105 15.1592 103.718 15.0646 103.274 15.0646C102.83 15.0646 102.44 15.1592 102.113 15.3485C101.783 15.5348 101.501 15.7862 101.27 16.1056C101.042 16.422 100.869 16.8006 100.752 17.2412C100.638 17.6818 100.581 18.1461 100.581 18.6341C100.581 19.1398 100.638 19.61 100.752 20.0417C100.869 20.4735 101.036 20.8521 101.258 21.1774C101.48 21.5027 101.762 21.7599 102.098 21.9492C102.437 22.1355 102.83 22.2302 103.274 22.2302C103.718 22.2302 104.105 22.1355 104.435 21.9492C104.765 21.7599 105.044 21.5027 105.275 21.1774C105.505 20.8521 105.679 20.4735 105.793 20.0417C105.907 19.61 105.967 19.1398 105.967 18.6341ZM108.982 18.647C108.982 19.4129 108.862 20.164 108.622 20.9034C108.385 21.6427 108.031 22.3022 107.56 22.8877C107.092 23.4733 106.498 23.9435 105.781 24.3013C105.065 24.6592 104.228 24.8366 103.274 24.8366C102.317 24.8366 101.48 24.6591 100.767 24.3013C100.05 23.9435 99.4559 23.4733 98.985 22.8877C98.5171 22.3022 98.1632 21.6427 97.9232 20.9034C97.6833 20.1641 97.5663 19.4129 97.5663 18.647C97.5663 17.884 97.6833 17.1387 97.9232 16.4053C98.1632 15.6748 98.5171 15.0213 98.985 14.4446C99.4559 13.8679 100.05 13.4066 100.767 13.0576C101.48 12.7087 102.317 12.5312 103.274 12.5312C104.228 12.5312 105.062 12.7087 105.769 13.0576C106.477 13.4066 107.071 13.8679 107.548 14.4446C108.028 15.0213 108.385 15.6748 108.622 16.4053C108.862 17.1387 108.982 17.884 108.982 18.647Z" fill="white"></path><path d="M118.493 24.5655V17.8672C118.493 16.9741 118.304 16.2821 117.926 15.7941C117.545 15.3091 117.02 15.0637 116.342 15.0637C115.865 15.0637 115.424 15.1849 115.022 15.4304C114.617 15.6729 114.266 15.942 113.97 16.2348V24.5655H110.907V12.822H113.7L113.847 13.7477C114.326 13.3603 114.863 13.0586 115.466 12.8486C116.066 12.6358 116.672 12.5322 117.281 12.5322C117.908 12.5322 118.483 12.6239 119.011 12.8102C119.539 12.9995 119.992 13.2952 120.37 13.7003C120.751 14.1055 121.042 14.6349 121.249 15.2825C121.453 15.9331 121.558 16.7138 121.558 17.6217V24.5655H118.493Z" fill="white"></path><path d="M131.09 17.2818C131.057 16.8766 130.97 16.5217 130.829 16.223C130.688 15.9214 130.514 15.6789 130.307 15.4926C130.1 15.3033 129.878 15.1673 129.638 15.0756C129.395 14.9869 129.152 14.9425 128.903 14.9425C128.372 14.9425 127.868 15.1376 127.389 15.5281C126.909 15.9185 126.627 16.501 126.543 17.2818H131.09ZM126.471 19.4494C126.537 20.4401 126.849 21.1558 127.412 21.5935C127.973 22.0312 128.702 22.253 129.593 22.253C130.007 22.253 130.397 22.2146 130.76 22.1435C131.123 22.0697 131.447 21.9779 131.729 21.8626C132.01 21.7502 132.25 21.6349 132.448 21.5225C132.646 21.4073 132.793 21.3007 132.895 21.2031L133.711 23.6665C133.594 23.7464 133.408 23.8558 133.153 23.9948C132.898 24.1339 132.58 24.261 132.202 24.3852C131.824 24.5064 131.378 24.61 130.868 24.7016C130.358 24.7902 129.797 24.8347 129.188 24.8347C128.411 24.8347 127.676 24.7134 126.975 24.4709C126.276 24.2255 125.661 23.8469 125.136 23.3353C124.608 22.8237 124.188 22.1879 123.876 21.4249C123.561 20.6619 123.405 19.7511 123.405 18.6953C123.405 17.7046 123.549 16.8263 123.837 16.0633C124.125 15.3003 124.521 14.6585 125.022 14.1381C125.526 13.6205 126.111 13.2213 126.777 12.9433C127.445 12.6683 128.156 12.5293 128.915 12.5293C129.674 12.5293 130.373 12.6535 131.018 12.896C131.66 13.1385 132.214 13.517 132.685 14.0287C133.153 14.5403 133.525 15.2027 133.795 16.0159C134.068 16.8263 134.203 17.7933 134.203 18.9141V19.4494L126.471 19.4494Z" fill="white"></path></g><defs><clipPath id="clip0_1112_24139"><rect width="134.482" height="35.2216" fill="white" transform="translate(0.765259 0.290039)"></rect></clipPath></defs></svg>